<svg width="688" height="832" viewBox="0 0 688 832" fill="none" xmlns="http://www.w3.org/2000/svg">
<path d="M40 52C40 45.3726 45.3726 40 52 40H636C642.627 40 648 45.3726 648 52V780C648 786.627 642.627 792 636 792H52C45.3726 792 40 786.627 40 780V52Z" fill="white"/>
<path d="M52 42H636V38H52V42ZM646 52V780H650V52H646ZM636 790H52V794H636V790ZM42 780V52H38V780H42ZM52 790C46.4771 790 42 785.523 42 780H38C38 787.732 44.268 794 52 794V790ZM646 780C646 785.523 641.523 790 636 790V794C643.732 794 650 787.732 650 780H646ZM636 42C641.523 42 646 46.4772 646 52H650C650 44.268 643.732 38 636 38V42ZM52 38C44.268 38 38 44.268 38 52H42C42 46.4772 46.4772 42 52 42V38Z" fill="#3DADFF"/>
<rect x="280" y="168" width="128" height="64" rx="25.6" fill="white" stroke="#757575" stroke-width="4" stroke-linecap="round"/>
<path d="M317.984 191.545V209H315.342V194.188H315.24L311.064 196.915V194.392L315.419 191.545H317.984ZM326.637 209.162C326.171 209.162 325.77 208.997 325.435 208.668C325.1 208.332 324.932 207.929 324.932 207.457C324.932 206.991 325.1 206.594 325.435 206.264C325.77 205.929 326.171 205.761 326.637 205.761C327.103 205.761 327.503 205.929 327.839 206.264C328.174 206.594 328.341 206.991 328.341 207.457C328.341 207.77 328.262 208.057 328.103 208.318C327.949 208.574 327.745 208.778 327.489 208.932C327.233 209.085 326.949 209.162 326.637 209.162ZM339.934 209V191.545H346.155C347.513 191.545 348.638 191.793 349.53 192.287C350.422 192.781 351.09 193.457 351.533 194.315C351.976 195.168 352.198 196.128 352.198 197.196C352.198 198.27 351.973 199.236 351.525 200.094C351.081 200.946 350.411 201.622 349.513 202.122C348.621 202.616 347.499 202.864 346.147 202.864H341.868V200.631H345.908C346.766 200.631 347.462 200.483 347.996 200.188C348.53 199.886 348.922 199.477 349.172 198.96C349.422 198.443 349.547 197.855 349.547 197.196C349.547 196.537 349.422 195.952 349.172 195.44C348.922 194.929 348.527 194.528 347.988 194.239C347.454 193.949 346.749 193.804 345.874 193.804H342.567V209H339.934ZM357.173 191.545V209H354.625V191.545H357.173ZM363.955 209.29C363.125 209.29 362.375 209.136 361.705 208.83C361.034 208.517 360.503 208.065 360.111 207.474C359.725 206.884 359.532 206.159 359.532 205.301C359.532 204.562 359.674 203.955 359.958 203.477C360.242 203 360.625 202.622 361.108 202.344C361.591 202.065 362.131 201.855 362.728 201.713C363.324 201.571 363.932 201.463 364.551 201.389C365.336 201.298 365.972 201.224 366.461 201.168C366.949 201.105 367.304 201.006 367.526 200.869C367.747 200.733 367.858 200.511 367.858 200.205V200.145C367.858 199.401 367.648 198.824 367.228 198.415C366.813 198.006 366.194 197.801 365.37 197.801C364.512 197.801 363.836 197.991 363.341 198.372C362.853 198.747 362.515 199.165 362.327 199.625L359.932 199.08C360.216 198.284 360.631 197.642 361.176 197.153C361.728 196.659 362.361 196.301 363.077 196.08C363.793 195.852 364.546 195.739 365.336 195.739C365.858 195.739 366.412 195.801 366.997 195.926C367.588 196.045 368.14 196.267 368.651 196.591C369.168 196.915 369.591 197.378 369.921 197.98C370.25 198.577 370.415 199.352 370.415 200.307V209H367.926V207.21H367.824C367.659 207.54 367.412 207.864 367.083 208.182C366.753 208.5 366.33 208.764 365.813 208.974C365.296 209.185 364.676 209.29 363.955 209.29ZM364.509 207.244C365.213 207.244 365.816 207.105 366.316 206.827C366.821 206.548 367.205 206.185 367.466 205.736C367.733 205.281 367.867 204.795 367.867 204.278V202.591C367.776 202.682 367.6 202.767 367.338 202.847C367.083 202.92 366.79 202.986 366.461 203.043C366.131 203.094 365.81 203.142 365.497 203.188C365.185 203.227 364.924 203.261 364.713 203.29C364.219 203.352 363.767 203.457 363.358 203.605C362.955 203.753 362.631 203.966 362.387 204.244C362.148 204.517 362.029 204.881 362.029 205.335C362.029 205.966 362.262 206.443 362.728 206.767C363.194 207.085 363.787 207.244 364.509 207.244ZM375.902 201.227V209H373.353V195.909H375.799V198.04H375.961C376.262 197.347 376.734 196.79 377.376 196.369C378.024 195.949 378.839 195.739 379.822 195.739C380.714 195.739 381.495 195.926 382.166 196.301C382.836 196.67 383.356 197.222 383.725 197.955C384.095 198.687 384.279 199.594 384.279 200.673V209H381.731V200.98C381.731 200.031 381.484 199.29 380.99 198.756C380.495 198.216 379.816 197.946 378.953 197.946C378.362 197.946 377.836 198.074 377.376 198.33C376.921 198.585 376.561 198.96 376.294 199.455C376.032 199.943 375.902 200.534 375.902 201.227Z" fill="black" fill-opacity="0.8"/>
<rect x="224" y="296" width="240" height="64" rx="25.6" fill="white" stroke="#757575" stroke-width="4" stroke-linecap="round"/>
<path d="M254.669 337V335.091L260.576 328.972C261.206 328.307 261.726 327.724 262.135 327.224C262.55 326.719 262.86 326.239 263.064 325.784C263.269 325.33 263.371 324.847 263.371 324.335C263.371 323.756 263.235 323.256 262.962 322.835C262.689 322.409 262.317 322.082 261.845 321.855C261.374 321.622 260.843 321.506 260.252 321.506C259.627 321.506 259.081 321.634 258.615 321.889C258.149 322.145 257.791 322.506 257.541 322.972C257.291 323.437 257.166 323.983 257.166 324.608H254.652C254.652 323.545 254.897 322.616 255.385 321.821C255.874 321.026 256.544 320.409 257.397 319.972C258.249 319.528 259.218 319.307 260.303 319.307C261.399 319.307 262.365 319.526 263.201 319.963C264.041 320.395 264.698 320.986 265.169 321.736C265.641 322.48 265.877 323.321 265.877 324.259C265.877 324.906 265.755 325.54 265.51 326.159C265.272 326.778 264.854 327.469 264.257 328.23C263.661 328.986 262.831 329.903 261.769 330.983L258.3 334.614V334.741H266.158V337H254.669ZM270.645 337.162C270.179 337.162 269.779 336.997 269.443 336.668C269.108 336.332 268.941 335.929 268.941 335.457C268.941 334.991 269.108 334.594 269.443 334.264C269.779 333.929 270.179 333.761 270.645 333.761C271.111 333.761 271.512 333.929 271.847 334.264C272.182 334.594 272.35 334.991 272.35 335.457C272.35 335.77 272.27 336.057 272.111 336.318C271.958 336.574 271.753 336.778 271.497 336.932C271.242 337.085 270.958 337.162 270.645 337.162ZM281.126 319.545H284.322L289.879 333.114H290.083L295.64 319.545H298.836V337H296.33V324.369H296.168L291.021 336.974H288.941L283.793 324.361H283.632V337H281.126V319.545ZM305.814 337.29C304.984 337.29 304.234 337.136 303.564 336.83C302.894 336.517 302.362 336.065 301.97 335.474C301.584 334.884 301.391 334.159 301.391 333.301C301.391 332.562 301.533 331.955 301.817 331.477C302.101 331 302.484 330.622 302.967 330.344C303.45 330.065 303.99 329.855 304.587 329.713C305.183 329.571 305.791 329.463 306.411 329.389C307.195 329.298 307.831 329.224 308.32 329.168C308.808 329.105 309.163 329.006 309.385 328.869C309.607 328.733 309.717 328.511 309.717 328.205V328.145C309.717 327.401 309.507 326.824 309.087 326.415C308.672 326.006 308.053 325.801 307.229 325.801C306.371 325.801 305.695 325.991 305.2 326.372C304.712 326.747 304.374 327.165 304.186 327.625L301.791 327.08C302.075 326.284 302.49 325.642 303.036 325.153C303.587 324.659 304.22 324.301 304.936 324.08C305.652 323.852 306.405 323.739 307.195 323.739C307.717 323.739 308.271 323.801 308.857 323.926C309.448 324.045 309.999 324.267 310.51 324.591C311.027 324.915 311.45 325.378 311.78 325.98C312.109 326.577 312.274 327.352 312.274 328.307V337H309.786V335.21H309.683C309.519 335.54 309.271 335.864 308.942 336.182C308.612 336.5 308.189 336.764 307.672 336.974C307.155 337.185 306.536 337.29 305.814 337.29ZM306.368 335.244C307.073 335.244 307.675 335.105 308.175 334.827C308.681 334.548 309.064 334.185 309.325 333.736C309.592 333.281 309.726 332.795 309.726 332.278V330.591C309.635 330.682 309.459 330.767 309.198 330.847C308.942 330.92 308.649 330.986 308.32 331.043C307.99 331.094 307.669 331.142 307.357 331.188C307.044 331.227 306.783 331.261 306.573 331.29C306.078 331.352 305.627 331.457 305.217 331.605C304.814 331.753 304.49 331.966 304.246 332.244C304.007 332.517 303.888 332.881 303.888 333.335C303.888 333.966 304.121 334.443 304.587 334.767C305.053 335.085 305.646 335.244 306.368 335.244ZM317.556 332.56L317.539 329.449H317.982L323.198 323.909H326.249L320.301 330.216H319.9L317.556 332.56ZM315.212 337V319.545H317.761V337H315.212ZM323.479 337L318.792 330.778L320.548 328.997L326.607 337H323.479ZM333.219 337.264C331.929 337.264 330.818 336.989 329.886 336.438C328.96 335.881 328.244 335.099 327.739 334.094C327.239 333.082 326.989 331.898 326.989 330.54C326.989 329.199 327.239 328.017 327.739 326.994C328.244 325.972 328.949 325.173 329.852 324.599C330.761 324.026 331.824 323.739 333.04 323.739C333.778 323.739 334.494 323.861 335.188 324.105C335.881 324.349 336.503 324.733 337.054 325.256C337.605 325.778 338.04 326.457 338.358 327.293C338.676 328.122 338.835 329.131 338.835 330.318V331.222H328.429V329.312H336.338C336.338 328.642 336.202 328.048 335.929 327.531C335.656 327.009 335.273 326.597 334.778 326.295C334.29 325.994 333.716 325.844 333.057 325.844C332.341 325.844 331.716 326.02 331.182 326.372C330.653 326.719 330.244 327.173 329.955 327.736C329.671 328.293 329.528 328.898 329.528 329.551V331.043C329.528 331.918 329.682 332.662 329.989 333.276C330.301 333.889 330.736 334.358 331.293 334.682C331.849 335 332.5 335.159 333.244 335.159C333.727 335.159 334.168 335.091 334.565 334.955C334.963 334.812 335.307 334.602 335.597 334.324C335.886 334.045 336.108 333.702 336.261 333.293L338.673 333.727C338.48 334.437 338.134 335.06 337.634 335.594C337.139 336.122 336.517 336.534 335.767 336.83C335.023 337.119 334.173 337.264 333.219 337.264ZM356.912 327.105L354.602 327.514C354.506 327.219 354.352 326.937 354.142 326.67C353.937 326.403 353.659 326.185 353.307 326.014C352.955 325.844 352.514 325.759 351.986 325.759C351.264 325.759 350.662 325.92 350.179 326.244C349.696 326.562 349.455 326.974 349.455 327.48C349.455 327.918 349.616 328.27 349.94 328.537C350.264 328.804 350.787 329.023 351.509 329.193L353.588 329.67C354.793 329.949 355.69 330.378 356.281 330.957C356.872 331.537 357.168 332.29 357.168 333.216C357.168 334 356.94 334.699 356.486 335.312C356.037 335.92 355.409 336.398 354.602 336.744C353.801 337.091 352.872 337.264 351.815 337.264C350.349 337.264 349.153 336.952 348.227 336.327C347.301 335.696 346.733 334.801 346.523 333.642L348.986 333.267C349.139 333.909 349.455 334.395 349.932 334.724C350.409 335.048 351.031 335.21 351.798 335.21C352.634 335.21 353.301 335.037 353.801 334.69C354.301 334.338 354.551 333.909 354.551 333.403C354.551 332.994 354.398 332.651 354.091 332.372C353.79 332.094 353.327 331.884 352.702 331.741L350.486 331.256C349.264 330.977 348.361 330.534 347.776 329.926C347.196 329.318 346.906 328.548 346.906 327.616C346.906 326.844 347.122 326.168 347.554 325.588C347.986 325.009 348.582 324.557 349.344 324.233C350.105 323.903 350.977 323.739 351.96 323.739C353.375 323.739 354.489 324.045 355.301 324.659C356.114 325.267 356.651 326.082 356.912 327.105ZM365.028 337.264C363.761 337.264 362.67 336.977 361.755 336.403C360.846 335.824 360.147 335.026 359.658 334.009C359.17 332.991 358.925 331.827 358.925 330.514C358.925 329.185 359.175 328.011 359.675 326.994C360.175 325.972 360.88 325.173 361.789 324.599C362.698 324.026 363.769 323.739 365.002 323.739C365.996 323.739 366.883 323.923 367.661 324.293C368.44 324.656 369.067 325.168 369.545 325.827C370.028 326.486 370.315 327.256 370.405 328.136H367.925C367.789 327.523 367.477 326.994 366.988 326.551C366.505 326.108 365.857 325.886 365.045 325.886C364.334 325.886 363.712 326.074 363.178 326.449C362.65 326.818 362.238 327.347 361.942 328.034C361.647 328.716 361.499 329.523 361.499 330.455C361.499 331.409 361.644 332.233 361.934 332.926C362.224 333.619 362.633 334.156 363.161 334.537C363.695 334.918 364.323 335.108 365.045 335.108C365.528 335.108 365.965 335.02 366.357 334.844C366.755 334.662 367.087 334.403 367.354 334.068C367.627 333.733 367.817 333.33 367.925 332.858H370.405C370.315 333.705 370.039 334.46 369.579 335.125C369.119 335.79 368.502 336.312 367.729 336.693C366.962 337.074 366.062 337.264 365.028 337.264ZM376.484 337.29C375.655 337.29 374.905 337.136 374.234 336.83C373.564 336.517 373.033 336.065 372.641 335.474C372.254 334.884 372.061 334.159 372.061 333.301C372.061 332.562 372.203 331.955 372.487 331.477C372.771 331 373.155 330.622 373.638 330.344C374.121 330.065 374.66 329.855 375.257 329.713C375.854 329.571 376.462 329.463 377.081 329.389C377.865 329.298 378.501 329.224 378.99 329.168C379.479 329.105 379.834 329.006 380.055 328.869C380.277 328.733 380.388 328.511 380.388 328.205V328.145C380.388 327.401 380.177 326.824 379.757 326.415C379.342 326.006 378.723 325.801 377.899 325.801C377.041 325.801 376.365 325.991 375.871 326.372C375.382 326.747 375.044 327.165 374.856 327.625L372.462 327.08C372.746 326.284 373.16 325.642 373.706 325.153C374.257 324.659 374.891 324.301 375.606 324.08C376.322 323.852 377.075 323.739 377.865 323.739C378.388 323.739 378.942 323.801 379.527 323.926C380.118 324.045 380.669 324.267 381.18 324.591C381.697 324.915 382.121 325.378 382.45 325.98C382.78 326.577 382.945 327.352 382.945 328.307V337H380.456V335.21H380.354C380.189 335.54 379.942 335.864 379.612 336.182C379.283 336.5 378.859 336.764 378.342 336.974C377.825 337.185 377.206 337.29 376.484 337.29ZM377.038 335.244C377.743 335.244 378.345 335.105 378.845 334.827C379.351 334.548 379.734 334.185 379.996 333.736C380.263 333.281 380.396 332.795 380.396 332.278V330.591C380.305 330.682 380.129 330.767 379.868 330.847C379.612 330.92 379.32 330.986 378.99 331.043C378.66 331.094 378.339 331.142 378.027 331.188C377.714 331.227 377.453 331.261 377.243 331.29C376.748 331.352 376.297 331.457 375.888 331.605C375.484 331.753 375.16 331.966 374.916 332.244C374.677 332.517 374.558 332.881 374.558 333.335C374.558 333.966 374.791 334.443 375.257 334.767C375.723 335.085 376.317 335.244 377.038 335.244ZM392.113 323.909V325.955H384.715V323.909H392.113ZM386.743 337V322.392C386.743 321.574 386.922 320.895 387.28 320.355C387.638 319.81 388.113 319.403 388.704 319.136C389.295 318.864 389.937 318.727 390.63 318.727C391.141 318.727 391.579 318.77 391.942 318.855C392.306 318.935 392.576 319.009 392.752 319.077L392.155 321.139C392.036 321.105 391.883 321.065 391.695 321.02C391.508 320.969 391.28 320.943 391.013 320.943C390.394 320.943 389.951 321.097 389.684 321.403C389.422 321.71 389.292 322.153 389.292 322.733V337H386.743ZM400.516 323.909V325.955H393.118V323.909H400.516ZM395.147 337V322.392C395.147 321.574 395.326 320.895 395.684 320.355C396.042 319.81 396.516 319.403 397.107 319.136C397.698 318.864 398.34 318.727 399.033 318.727C399.545 318.727 399.982 318.77 400.346 318.855C400.709 318.935 400.979 319.009 401.155 319.077L400.559 321.139C400.439 321.105 400.286 321.065 400.099 321.02C399.911 320.969 399.684 320.943 399.417 320.943C398.797 320.943 398.354 321.097 398.087 321.403C397.826 321.71 397.695 322.153 397.695 322.733V337H395.147ZM407.688 337.264C406.461 337.264 405.39 336.983 404.475 336.42C403.56 335.858 402.85 335.071 402.344 334.06C401.839 333.048 401.586 331.866 401.586 330.514C401.586 329.156 401.839 327.969 402.344 326.952C402.85 325.935 403.56 325.145 404.475 324.582C405.39 324.02 406.461 323.739 407.688 323.739C408.915 323.739 409.986 324.02 410.901 324.582C411.816 325.145 412.526 325.935 413.032 326.952C413.537 327.969 413.79 329.156 413.79 330.514C413.79 331.866 413.537 333.048 413.032 334.06C412.526 335.071 411.816 335.858 410.901 336.42C409.986 336.983 408.915 337.264 407.688 337.264ZM407.697 335.125C408.492 335.125 409.151 334.915 409.674 334.494C410.197 334.074 410.583 333.514 410.833 332.815C411.089 332.116 411.216 331.347 411.216 330.506C411.216 329.67 411.089 328.903 410.833 328.205C410.583 327.5 410.197 326.935 409.674 326.509C409.151 326.082 408.492 325.869 407.697 325.869C406.895 325.869 406.231 326.082 405.702 326.509C405.18 326.935 404.79 327.5 404.535 328.205C404.285 328.903 404.16 329.67 404.16 330.506C404.16 331.347 404.285 332.116 404.535 332.815C404.79 333.514 405.18 334.074 405.702 334.494C406.231 334.915 406.895 335.125 407.697 335.125ZM418.727 319.545V337H416.179V319.545H418.727ZM426.6 337.256C425.543 337.256 424.6 336.986 423.77 336.446C422.946 335.901 422.299 335.125 421.827 334.119C421.361 333.108 421.128 331.895 421.128 330.48C421.128 329.065 421.364 327.855 421.836 326.849C422.313 325.844 422.966 325.074 423.796 324.54C424.625 324.006 425.566 323.739 426.617 323.739C427.429 323.739 428.083 323.875 428.577 324.148C429.077 324.415 429.464 324.727 429.736 325.085C430.015 325.443 430.231 325.759 430.384 326.031H430.537V319.545H433.086V337H430.597V334.963H430.384C430.231 335.241 430.009 335.56 429.719 335.918C429.435 336.276 429.043 336.588 428.543 336.855C428.043 337.122 427.395 337.256 426.6 337.256ZM427.162 335.082C427.895 335.082 428.515 334.889 429.02 334.503C429.532 334.111 429.918 333.568 430.179 332.875C430.446 332.182 430.58 331.375 430.58 330.455C430.58 329.545 430.449 328.75 430.188 328.068C429.927 327.386 429.543 326.855 429.037 326.474C428.532 326.094 427.907 325.903 427.162 325.903C426.395 325.903 425.756 326.102 425.245 326.5C424.733 326.898 424.347 327.44 424.086 328.128C423.83 328.815 423.702 329.591 423.702 330.455C423.702 331.33 423.833 332.116 424.094 332.815C424.356 333.514 424.742 334.068 425.253 334.477C425.77 334.881 426.407 335.082 427.162 335.082Z" fill="black" fill-opacity="0.8"/>
<path d="M346 240C346 238.895 345.105 238 344 238C342.895 238 342 238.895 342 240H346ZM342.586 288.914C343.367 289.695 344.633 289.695 345.414 288.914L358.142 276.186C358.923 275.405 358.923 274.139 358.142 273.358C357.361 272.577 356.095 272.577 355.314 273.358L344 284.672L332.686 273.358C331.905 272.577 330.639 272.577 329.858 273.358C329.077 274.139 329.077 275.405 329.858 276.186L342.586 288.914ZM342 240V287.5H346V240H342Z" fill="#757575"/>
<rect x="200" y="424" width="288" height="64" rx="25.6" fill="white" stroke="#757575" stroke-width="4" stroke-linecap="round"/>
<path d="M237.095 465.239C235.925 465.239 234.88 465.037 233.959 464.634C233.044 464.23 232.32 463.67 231.786 462.955C231.257 462.233 230.973 461.398 230.934 460.449H233.61C233.644 460.966 233.817 461.415 234.13 461.795C234.448 462.17 234.863 462.46 235.374 462.665C235.885 462.869 236.453 462.972 237.078 462.972C237.766 462.972 238.374 462.852 238.902 462.614C239.436 462.375 239.854 462.043 240.155 461.616C240.456 461.185 240.607 460.688 240.607 460.125C240.607 459.54 240.456 459.026 240.155 458.582C239.86 458.134 239.425 457.781 238.851 457.526C238.283 457.27 237.595 457.142 236.789 457.142H235.314V454.994H236.789C237.436 454.994 238.005 454.878 238.493 454.645C238.988 454.412 239.374 454.088 239.652 453.673C239.931 453.253 240.07 452.761 240.07 452.199C240.07 451.659 239.948 451.19 239.703 450.793C239.465 450.389 239.124 450.074 238.681 449.847C238.243 449.619 237.726 449.506 237.13 449.506C236.561 449.506 236.03 449.611 235.536 449.821C235.047 450.026 234.649 450.321 234.343 450.707C234.036 451.088 233.871 451.545 233.848 452.08H231.3C231.328 451.136 231.607 450.307 232.135 449.591C232.669 448.875 233.374 448.315 234.249 447.912C235.124 447.509 236.095 447.307 237.164 447.307C238.283 447.307 239.249 447.526 240.061 447.963C240.88 448.395 241.51 448.972 241.953 449.693C242.402 450.415 242.624 451.205 242.618 452.062C242.624 453.04 242.351 453.869 241.8 454.551C241.255 455.233 240.527 455.69 239.618 455.923V456.06C240.777 456.236 241.675 456.696 242.311 457.44C242.953 458.185 243.272 459.108 243.266 460.21C243.272 461.17 243.005 462.031 242.465 462.793C241.931 463.554 241.201 464.153 240.274 464.591C239.348 465.023 238.289 465.239 237.095 465.239ZM247.229 465.162C246.763 465.162 246.363 464.997 246.027 464.668C245.692 464.332 245.524 463.929 245.524 463.457C245.524 462.991 245.692 462.594 246.027 462.264C246.363 461.929 246.763 461.761 247.229 461.761C247.695 461.761 248.095 461.929 248.431 462.264C248.766 462.594 248.934 462.991 248.934 463.457C248.934 463.77 248.854 464.057 248.695 464.318C248.541 464.574 248.337 464.778 248.081 464.932C247.826 465.085 247.541 465.162 247.229 465.162ZM272.207 453.222H269.548C269.446 452.653 269.255 452.153 268.977 451.722C268.698 451.29 268.357 450.923 267.954 450.622C267.551 450.321 267.099 450.094 266.599 449.94C266.105 449.787 265.579 449.71 265.022 449.71C264.017 449.71 263.116 449.963 262.321 450.469C261.531 450.974 260.906 451.716 260.446 452.693C259.991 453.67 259.764 454.864 259.764 456.273C259.764 457.693 259.991 458.892 260.446 459.869C260.906 460.847 261.534 461.585 262.329 462.085C263.125 462.585 264.019 462.835 265.014 462.835C265.565 462.835 266.088 462.761 266.582 462.614C267.082 462.46 267.534 462.236 267.937 461.94C268.34 461.645 268.681 461.284 268.96 460.858C269.244 460.426 269.44 459.932 269.548 459.375L272.207 459.384C272.065 460.241 271.789 461.031 271.38 461.753C270.977 462.469 270.457 463.088 269.821 463.611C269.19 464.128 268.468 464.528 267.656 464.812C266.843 465.097 265.957 465.239 264.997 465.239C263.485 465.239 262.139 464.881 260.957 464.165C259.775 463.443 258.843 462.412 258.161 461.071C257.485 459.73 257.147 458.131 257.147 456.273C257.147 454.409 257.488 452.81 258.17 451.474C258.852 450.134 259.784 449.105 260.965 448.389C262.147 447.668 263.491 447.307 264.997 447.307C265.923 447.307 266.786 447.44 267.588 447.707C268.394 447.969 269.119 448.355 269.761 448.866C270.403 449.372 270.934 449.991 271.355 450.724C271.775 451.452 272.059 452.284 272.207 453.222ZM277.246 457.227V465H274.698V447.545H277.212V454.04H277.374C277.681 453.335 278.149 452.776 278.78 452.361C279.411 451.946 280.235 451.739 281.252 451.739C282.149 451.739 282.933 451.923 283.604 452.293C284.28 452.662 284.803 453.213 285.172 453.946C285.547 454.673 285.735 455.582 285.735 456.673V465H283.186V456.98C283.186 456.02 282.939 455.276 282.445 454.747C281.95 454.213 281.263 453.946 280.382 453.946C279.78 453.946 279.24 454.074 278.763 454.33C278.291 454.585 277.919 454.96 277.646 455.455C277.379 455.943 277.246 456.534 277.246 457.227ZM292.489 465.29C291.659 465.29 290.909 465.136 290.239 464.83C289.568 464.517 289.037 464.065 288.645 463.474C288.259 462.884 288.065 462.159 288.065 461.301C288.065 460.562 288.208 459.955 288.492 459.477C288.776 459 289.159 458.622 289.642 458.344C290.125 458.065 290.665 457.855 291.262 457.713C291.858 457.571 292.466 457.463 293.085 457.389C293.869 457.298 294.506 457.224 294.994 457.168C295.483 457.105 295.838 457.006 296.06 456.869C296.281 456.733 296.392 456.511 296.392 456.205V456.145C296.392 455.401 296.182 454.824 295.762 454.415C295.347 454.006 294.727 453.801 293.904 453.801C293.046 453.801 292.369 453.991 291.875 454.372C291.387 454.747 291.048 455.165 290.861 455.625L288.466 455.08C288.75 454.284 289.165 453.642 289.71 453.153C290.262 452.659 290.895 452.301 291.611 452.08C292.327 451.852 293.08 451.739 293.869 451.739C294.392 451.739 294.946 451.801 295.531 451.926C296.122 452.045 296.673 452.267 297.185 452.591C297.702 452.915 298.125 453.378 298.455 453.98C298.784 454.577 298.949 455.352 298.949 456.307V465H296.46V463.21H296.358C296.193 463.54 295.946 463.864 295.617 464.182C295.287 464.5 294.864 464.764 294.347 464.974C293.83 465.185 293.21 465.29 292.489 465.29ZM293.043 463.244C293.747 463.244 294.35 463.105 294.85 462.827C295.355 462.548 295.739 462.185 296 461.736C296.267 461.281 296.401 460.795 296.401 460.278V458.591C296.31 458.682 296.134 458.767 295.872 458.847C295.617 458.92 295.324 458.986 294.994 459.043C294.665 459.094 294.344 459.142 294.031 459.188C293.719 459.227 293.458 459.261 293.247 459.29C292.753 459.352 292.301 459.457 291.892 459.605C291.489 459.753 291.165 459.966 290.921 460.244C290.682 460.517 290.563 460.881 290.563 461.335C290.563 461.966 290.796 462.443 291.262 462.767C291.727 463.085 292.321 463.244 293.043 463.244ZM304.435 457.227V465H301.887V451.909H304.333V454.04H304.495C304.796 453.347 305.268 452.79 305.91 452.369C306.558 451.949 307.373 451.739 308.356 451.739C309.248 451.739 310.029 451.926 310.7 452.301C311.37 452.67 311.89 453.222 312.259 453.955C312.629 454.687 312.813 455.594 312.813 456.673V465H310.265V456.98C310.265 456.031 310.018 455.29 309.524 454.756C309.029 454.216 308.35 453.946 307.487 453.946C306.896 453.946 306.37 454.074 305.91 454.33C305.455 454.585 305.095 454.96 304.828 455.455C304.566 455.943 304.435 456.534 304.435 457.227ZM321.264 470.182C320.224 470.182 319.329 470.045 318.579 469.773C317.835 469.5 317.227 469.139 316.755 468.69C316.283 468.241 315.931 467.75 315.698 467.216L317.889 466.312C318.042 466.562 318.247 466.827 318.502 467.105C318.764 467.389 319.116 467.631 319.559 467.83C320.008 468.028 320.585 468.128 321.289 468.128C322.255 468.128 323.053 467.892 323.684 467.42C324.315 466.955 324.63 466.21 324.63 465.188V462.614H324.468C324.315 462.892 324.093 463.202 323.803 463.543C323.519 463.884 323.127 464.179 322.627 464.429C322.127 464.679 321.477 464.804 320.676 464.804C319.641 464.804 318.71 464.562 317.88 464.08C317.056 463.591 316.403 462.872 315.92 461.923C315.443 460.969 315.204 459.795 315.204 458.403C315.204 457.011 315.44 455.818 315.911 454.824C316.389 453.83 317.042 453.068 317.872 452.54C318.701 452.006 319.641 451.739 320.693 451.739C321.505 451.739 322.161 451.875 322.661 452.148C323.161 452.415 323.551 452.727 323.829 453.085C324.113 453.443 324.332 453.759 324.485 454.031H324.673V451.909H327.17V465.29C327.17 466.415 326.908 467.338 326.386 468.06C325.863 468.781 325.156 469.315 324.264 469.662C323.377 470.009 322.377 470.182 321.264 470.182ZM321.238 462.69C321.971 462.69 322.59 462.52 323.096 462.179C323.607 461.832 323.994 461.338 324.255 460.696C324.522 460.048 324.656 459.273 324.656 458.369C324.656 457.489 324.525 456.713 324.264 456.043C324.002 455.372 323.619 454.849 323.113 454.474C322.607 454.094 321.982 453.903 321.238 453.903C320.471 453.903 319.832 454.102 319.32 454.5C318.809 454.892 318.423 455.426 318.161 456.102C317.906 456.778 317.778 457.534 317.778 458.369C317.778 459.227 317.908 459.98 318.17 460.628C318.431 461.276 318.818 461.781 319.329 462.145C319.846 462.509 320.482 462.69 321.238 462.69ZM335.773 465.264C334.484 465.264 333.373 464.989 332.441 464.438C331.515 463.881 330.799 463.099 330.293 462.094C329.793 461.082 329.543 459.898 329.543 458.54C329.543 457.199 329.793 456.017 330.293 454.994C330.799 453.972 331.504 453.173 332.407 452.599C333.316 452.026 334.379 451.739 335.595 451.739C336.333 451.739 337.049 451.861 337.742 452.105C338.435 452.349 339.058 452.733 339.609 453.256C340.16 453.778 340.595 454.457 340.913 455.293C341.231 456.122 341.39 457.131 341.39 458.318V459.222H330.984V457.312H338.893C338.893 456.642 338.756 456.048 338.484 455.531C338.211 455.009 337.827 454.597 337.333 454.295C336.845 453.994 336.271 453.844 335.612 453.844C334.896 453.844 334.271 454.02 333.737 454.372C333.208 454.719 332.799 455.173 332.509 455.736C332.225 456.293 332.083 456.898 332.083 457.551V459.043C332.083 459.918 332.237 460.662 332.543 461.276C332.856 461.889 333.291 462.358 333.847 462.682C334.404 463 335.055 463.159 335.799 463.159C336.282 463.159 336.722 463.091 337.12 462.955C337.518 462.812 337.862 462.602 338.151 462.324C338.441 462.045 338.663 461.702 338.816 461.293L341.228 461.727C341.035 462.437 340.688 463.06 340.188 463.594C339.694 464.122 339.072 464.534 338.322 464.83C337.577 465.119 336.728 465.264 335.773 465.264ZM353.467 465.29C352.637 465.29 351.887 465.136 351.217 464.83C350.546 464.517 350.015 464.065 349.623 463.474C349.236 462.884 349.043 462.159 349.043 461.301C349.043 460.562 349.185 459.955 349.469 459.477C349.754 459 350.137 458.622 350.62 458.344C351.103 458.065 351.643 457.855 352.239 457.713C352.836 457.571 353.444 457.463 354.063 457.389C354.847 457.298 355.484 457.224 355.972 457.168C356.461 457.105 356.816 457.006 357.038 456.869C357.259 456.733 357.37 456.511 357.37 456.205V456.145C357.37 455.401 357.16 454.824 356.739 454.415C356.325 454.006 355.705 453.801 354.881 453.801C354.023 453.801 353.347 453.991 352.853 454.372C352.364 454.747 352.026 455.165 351.839 455.625L349.444 455.08C349.728 454.284 350.143 453.642 350.688 453.153C351.239 452.659 351.873 452.301 352.589 452.08C353.305 451.852 354.058 451.739 354.847 451.739C355.37 451.739 355.924 451.801 356.509 451.926C357.1 452.045 357.651 452.267 358.163 452.591C358.68 452.915 359.103 453.378 359.433 453.98C359.762 454.577 359.927 455.352 359.927 456.307V465H357.438V463.21H357.336C357.171 463.54 356.924 463.864 356.594 464.182C356.265 464.5 355.842 464.764 355.325 464.974C354.808 465.185 354.188 465.29 353.467 465.29ZM354.021 463.244C354.725 463.244 355.327 463.105 355.827 462.827C356.333 462.548 356.717 462.185 356.978 461.736C357.245 461.281 357.379 460.795 357.379 460.278V458.591C357.288 458.682 357.111 458.767 356.85 458.847C356.594 458.92 356.302 458.986 355.972 459.043C355.643 459.094 355.322 459.142 355.009 459.188C354.697 459.227 354.435 459.261 354.225 459.29C353.731 459.352 353.279 459.457 352.87 459.605C352.467 459.753 352.143 459.966 351.898 460.244C351.66 460.517 351.54 460.881 351.54 461.335C351.54 461.966 351.773 462.443 352.239 462.767C352.705 463.085 353.299 463.244 354.021 463.244ZM374.991 451.909V453.955H367.593V451.909H374.991ZM369.621 465V450.392C369.621 449.574 369.8 448.895 370.158 448.355C370.516 447.81 370.991 447.403 371.582 447.136C372.173 446.864 372.815 446.727 373.508 446.727C374.019 446.727 374.457 446.77 374.82 446.855C375.184 446.935 375.454 447.009 375.63 447.077L375.033 449.139C374.914 449.105 374.761 449.065 374.573 449.02C374.386 448.969 374.158 448.943 373.891 448.943C373.272 448.943 372.829 449.097 372.562 449.403C372.3 449.71 372.17 450.153 372.17 450.733V465H369.621ZM385.457 459.571V451.909H388.013V465H385.508V462.733H385.371C385.07 463.432 384.587 464.014 383.922 464.48C383.263 464.94 382.442 465.17 381.459 465.17C380.618 465.17 379.874 464.986 379.226 464.616C378.584 464.241 378.079 463.688 377.709 462.955C377.346 462.222 377.164 461.315 377.164 460.236V451.909H379.712V459.929C379.712 460.821 379.959 461.531 380.454 462.06C380.948 462.588 381.59 462.852 382.38 462.852C382.857 462.852 383.332 462.733 383.803 462.494C384.28 462.256 384.675 461.895 384.988 461.412C385.306 460.929 385.462 460.315 385.457 459.571ZM393.53 457.227V465H390.981V451.909H393.427V454.04H393.589C393.89 453.347 394.362 452.79 395.004 452.369C395.652 451.949 396.467 451.739 397.45 451.739C398.342 451.739 399.123 451.926 399.794 452.301C400.464 452.67 400.984 453.222 401.354 453.955C401.723 454.687 401.908 455.594 401.908 456.673V465H399.359V456.98C399.359 456.031 399.112 455.29 398.618 454.756C398.123 454.216 397.444 453.946 396.581 453.946C395.99 453.946 395.464 454.074 395.004 454.33C394.55 454.585 394.189 454.96 393.922 455.455C393.66 455.943 393.53 456.534 393.53 457.227ZM410.383 465.264C409.116 465.264 408.025 464.977 407.111 464.403C406.202 463.824 405.503 463.026 405.014 462.009C404.525 460.991 404.281 459.827 404.281 458.514C404.281 457.185 404.531 456.011 405.031 454.994C405.531 453.972 406.236 453.173 407.145 452.599C408.054 452.026 409.125 451.739 410.358 451.739C411.352 451.739 412.238 451.923 413.017 452.293C413.795 452.656 414.423 453.168 414.9 453.827C415.383 454.486 415.67 455.256 415.761 456.136H413.281C413.145 455.523 412.832 454.994 412.344 454.551C411.861 454.108 411.213 453.886 410.4 453.886C409.69 453.886 409.068 454.074 408.534 454.449C408.005 454.818 407.594 455.347 407.298 456.034C407.003 456.716 406.855 457.523 406.855 458.455C406.855 459.409 407 460.233 407.29 460.926C407.579 461.619 407.988 462.156 408.517 462.537C409.051 462.918 409.679 463.108 410.4 463.108C410.883 463.108 411.321 463.02 411.713 462.844C412.111 462.662 412.443 462.403 412.71 462.068C412.983 461.733 413.173 461.33 413.281 460.858H415.761C415.67 461.705 415.395 462.46 414.934 463.125C414.474 463.79 413.858 464.312 413.085 464.693C412.318 465.074 411.417 465.264 410.383 465.264ZM424.141 451.909V453.955H416.991V451.909H424.141ZM418.908 448.773H421.456V461.156C421.456 461.651 421.53 462.023 421.678 462.273C421.826 462.517 422.016 462.685 422.249 462.776C422.488 462.861 422.746 462.903 423.025 462.903C423.229 462.903 423.408 462.889 423.562 462.861C423.715 462.832 423.834 462.81 423.92 462.793L424.38 464.898C424.232 464.955 424.022 465.011 423.749 465.068C423.476 465.131 423.135 465.165 422.726 465.17C422.056 465.182 421.431 465.062 420.851 464.812C420.272 464.562 419.803 464.176 419.445 463.653C419.087 463.131 418.908 462.474 418.908 461.685V448.773ZM426.504 465V451.909H429.052V465H426.504ZM427.791 449.889C427.348 449.889 426.967 449.741 426.649 449.446C426.336 449.145 426.18 448.787 426.18 448.372C426.18 447.952 426.336 447.594 426.649 447.298C426.967 446.997 427.348 446.847 427.791 446.847C428.234 446.847 428.612 446.997 428.924 447.298C429.243 447.594 429.402 447.952 429.402 448.372C429.402 448.787 429.243 449.145 428.924 449.446C428.612 449.741 428.234 449.889 427.791 449.889ZM437.539 465.264C436.312 465.264 435.24 464.983 434.326 464.42C433.411 463.858 432.701 463.071 432.195 462.06C431.689 461.048 431.437 459.866 431.437 458.514C431.437 457.156 431.689 455.969 432.195 454.952C432.701 453.935 433.411 453.145 434.326 452.582C435.24 452.02 436.312 451.739 437.539 451.739C438.766 451.739 439.837 452.02 440.752 452.582C441.667 453.145 442.377 453.935 442.883 454.952C443.388 455.969 443.641 457.156 443.641 458.514C443.641 459.866 443.388 461.048 442.883 462.06C442.377 463.071 441.667 463.858 440.752 464.42C439.837 464.983 438.766 465.264 437.539 465.264ZM437.547 463.125C438.343 463.125 439.002 462.915 439.525 462.494C440.047 462.074 440.434 461.514 440.684 460.815C440.939 460.116 441.067 459.347 441.067 458.506C441.067 457.67 440.939 456.903 440.684 456.205C440.434 455.5 440.047 454.935 439.525 454.509C439.002 454.082 438.343 453.869 437.547 453.869C436.746 453.869 436.081 454.082 435.553 454.509C435.03 454.935 434.641 455.5 434.385 456.205C434.135 456.903 434.01 457.67 434.01 458.506C434.01 459.347 434.135 460.116 434.385 460.815C434.641 461.514 435.03 462.074 435.553 462.494C436.081 462.915 436.746 463.125 437.547 463.125ZM448.578 457.227V465H446.03V451.909H448.476V454.04H448.637C448.939 453.347 449.41 452.79 450.052 452.369C450.7 451.949 451.515 451.739 452.498 451.739C453.39 451.739 454.172 451.926 454.842 452.301C455.512 452.67 456.032 453.222 456.402 453.955C456.771 454.687 456.956 455.594 456.956 456.673V465H454.407V456.98C454.407 456.031 454.16 455.29 453.666 454.756C453.172 454.216 452.493 453.946 451.629 453.946C451.038 453.946 450.512 454.074 450.052 454.33C449.598 454.585 449.237 454.96 448.97 455.455C448.708 455.943 448.578 456.534 448.578 457.227Z" fill="black" fill-opacity="0.8"/>
<path d="M346 368C346 366.895 345.105 366 344 366C342.895 366 342 366.895 342 368H346ZM342.586 416.914C343.367 417.695 344.633 417.695 345.414 416.914L358.142 404.186C358.923 403.405 358.923 402.139 358.142 401.358C357.361 400.577 356.095 400.577 355.314 401.358L344 412.672L332.686 401.358C331.905 400.577 330.639 400.577 329.858 401.358C329.077 402.139 329.077 403.405 329.858 404.186L342.586 416.914ZM342 368V415.5H346V368H342Z" fill="#757575"/>
<rect x="104" y="552" width="480" height="64" rx="25.6" fill="white" stroke="#757575" stroke-width="4" stroke-linecap="round"/>
<path d="M138.92 589.591V587.46L146.463 575.545H148.142V578.682H147.077L141.682 587.222V587.358H152.02V589.591H138.92ZM147.196 593V588.943L147.213 587.972V575.545H149.71V593H147.196ZM155.591 593.162C155.125 593.162 154.724 592.997 154.389 592.668C154.054 592.332 153.886 591.929 153.886 591.457C153.886 590.991 154.054 590.594 154.389 590.264C154.724 589.929 155.125 589.761 155.591 589.761C156.057 589.761 156.457 589.929 156.793 590.264C157.128 590.594 157.295 590.991 157.295 591.457C157.295 591.77 157.216 592.057 157.057 592.318C156.903 592.574 156.699 592.778 156.443 592.932C156.187 593.085 155.903 593.162 155.591 593.162ZM166.072 575.545H169.268L174.824 589.114H175.029L180.586 575.545H183.782V593H181.276V580.369H181.114L175.966 592.974H173.887L168.739 580.361H168.577V593H166.072V575.545ZM186.95 593V579.909H189.498V593H186.95ZM188.237 577.889C187.794 577.889 187.413 577.741 187.095 577.446C186.782 577.145 186.626 576.787 186.626 576.372C186.626 575.952 186.782 575.594 187.095 575.298C187.413 574.997 187.794 574.847 188.237 574.847C188.68 574.847 189.058 574.997 189.371 575.298C189.689 575.594 189.848 575.952 189.848 576.372C189.848 576.787 189.689 577.145 189.371 577.446C189.058 577.741 188.68 577.889 188.237 577.889ZM197.959 598.182C196.92 598.182 196.025 598.045 195.275 597.773C194.53 597.5 193.922 597.139 193.451 596.69C192.979 596.241 192.627 595.75 192.394 595.216L194.584 594.312C194.738 594.562 194.942 594.827 195.198 595.105C195.459 595.389 195.812 595.631 196.255 595.83C196.704 596.028 197.28 596.128 197.985 596.128C198.951 596.128 199.749 595.892 200.38 595.42C201.01 594.955 201.326 594.21 201.326 593.188V590.614H201.164C201.01 590.892 200.789 591.202 200.499 591.543C200.215 591.884 199.823 592.179 199.323 592.429C198.823 592.679 198.172 592.804 197.371 592.804C196.337 592.804 195.405 592.562 194.576 592.08C193.752 591.591 193.098 590.872 192.616 589.923C192.138 588.969 191.9 587.795 191.9 586.403C191.9 585.011 192.135 583.818 192.607 582.824C193.084 581.83 193.738 581.068 194.567 580.54C195.397 580.006 196.337 579.739 197.388 579.739C198.201 579.739 198.857 579.875 199.357 580.148C199.857 580.415 200.246 580.727 200.525 581.085C200.809 581.443 201.027 581.759 201.181 582.031H201.368V579.909H203.866V593.29C203.866 594.415 203.604 595.338 203.081 596.06C202.559 596.781 201.851 597.315 200.959 597.662C200.073 598.009 199.073 598.182 197.959 598.182ZM197.934 590.69C198.667 590.69 199.286 590.52 199.792 590.179C200.303 589.832 200.689 589.338 200.951 588.696C201.218 588.048 201.351 587.273 201.351 586.369C201.351 585.489 201.221 584.713 200.959 584.043C200.698 583.372 200.314 582.849 199.809 582.474C199.303 582.094 198.678 581.903 197.934 581.903C197.167 581.903 196.527 582.102 196.016 582.5C195.505 582.892 195.118 583.426 194.857 584.102C194.601 584.778 194.473 585.534 194.473 586.369C194.473 587.227 194.604 587.98 194.866 588.628C195.127 589.276 195.513 589.781 196.025 590.145C196.542 590.509 197.178 590.69 197.934 590.69ZM206.827 593V579.909H209.29V581.989H209.427C209.665 581.284 210.086 580.73 210.688 580.327C211.296 579.918 211.983 579.713 212.75 579.713C212.91 579.713 213.097 579.719 213.313 579.73C213.535 579.741 213.708 579.756 213.833 579.773V582.21C213.731 582.182 213.549 582.151 213.287 582.116C213.026 582.077 212.765 582.057 212.503 582.057C211.901 582.057 211.364 582.185 210.892 582.44C210.427 582.69 210.057 583.04 209.785 583.489C209.512 583.932 209.375 584.437 209.375 585.006V593H206.827ZM219.275 593.29C218.445 593.29 217.695 593.136 217.025 592.83C216.354 592.517 215.823 592.065 215.431 591.474C215.044 590.884 214.851 590.159 214.851 589.301C214.851 588.562 214.993 587.955 215.277 587.477C215.561 587 215.945 586.622 216.428 586.344C216.911 586.065 217.451 585.855 218.047 585.713C218.644 585.571 219.252 585.463 219.871 585.389C220.655 585.298 221.292 585.224 221.78 585.168C222.269 585.105 222.624 585.006 222.846 584.869C223.067 584.733 223.178 584.511 223.178 584.205V584.145C223.178 583.401 222.968 582.824 222.547 582.415C222.132 582.006 221.513 581.801 220.689 581.801C219.831 581.801 219.155 581.991 218.661 582.372C218.172 582.747 217.834 583.165 217.647 583.625L215.252 583.08C215.536 582.284 215.951 581.642 216.496 581.153C217.047 580.659 217.681 580.301 218.397 580.08C219.113 579.852 219.865 579.739 220.655 579.739C221.178 579.739 221.732 579.801 222.317 579.926C222.908 580.045 223.459 580.267 223.971 580.591C224.488 580.915 224.911 581.378 225.24 581.98C225.57 582.577 225.735 583.352 225.735 584.307V593H223.246V591.21H223.144C222.979 591.54 222.732 591.864 222.402 592.182C222.073 592.5 221.65 592.764 221.132 592.974C220.615 593.185 219.996 593.29 219.275 593.29ZM219.829 591.244C220.533 591.244 221.135 591.105 221.635 590.827C222.141 590.548 222.525 590.185 222.786 589.736C223.053 589.281 223.186 588.795 223.186 588.278V586.591C223.096 586.682 222.919 586.767 222.658 586.847C222.402 586.92 222.11 586.986 221.78 587.043C221.451 587.094 221.13 587.142 220.817 587.188C220.505 587.227 220.243 587.261 220.033 587.29C219.539 587.352 219.087 587.457 218.678 587.605C218.275 587.753 217.951 587.966 217.706 588.244C217.468 588.517 217.348 588.881 217.348 589.335C217.348 589.966 217.581 590.443 218.047 590.767C218.513 591.085 219.107 591.244 219.829 591.244ZM234.784 579.909V581.955H227.633V579.909H234.784ZM229.551 576.773H232.099V589.156C232.099 589.651 232.173 590.023 232.321 590.273C232.468 590.517 232.659 590.685 232.892 590.776C233.13 590.861 233.389 590.903 233.667 590.903C233.872 590.903 234.051 590.889 234.204 590.861C234.358 590.832 234.477 590.81 234.562 590.793L235.022 592.898C234.875 592.955 234.664 593.011 234.392 593.068C234.119 593.131 233.778 593.165 233.369 593.17C232.699 593.182 232.074 593.062 231.494 592.812C230.914 592.562 230.446 592.176 230.088 591.653C229.73 591.131 229.551 590.474 229.551 589.685V576.773ZM242.648 593.264C241.358 593.264 240.247 592.989 239.316 592.438C238.39 591.881 237.674 591.099 237.168 590.094C236.668 589.082 236.418 587.898 236.418 586.54C236.418 585.199 236.668 584.017 237.168 582.994C237.674 581.972 238.378 581.173 239.282 580.599C240.191 580.026 241.253 579.739 242.469 579.739C243.208 579.739 243.924 579.861 244.617 580.105C245.31 580.349 245.932 580.733 246.483 581.256C247.034 581.778 247.469 582.457 247.787 583.293C248.105 584.122 248.265 585.131 248.265 586.318V587.222H237.858V585.312H245.767C245.767 584.642 245.631 584.048 245.358 583.531C245.086 583.009 244.702 582.597 244.208 582.295C243.719 581.994 243.145 581.844 242.486 581.844C241.77 581.844 241.145 582.02 240.611 582.372C240.083 582.719 239.674 583.173 239.384 583.736C239.1 584.293 238.958 584.898 238.958 585.551V587.043C238.958 587.918 239.111 588.662 239.418 589.276C239.73 589.889 240.165 590.358 240.722 590.682C241.279 591 241.929 591.159 242.674 591.159C243.157 591.159 243.597 591.091 243.995 590.955C244.392 590.812 244.736 590.602 245.026 590.324C245.316 590.045 245.537 589.702 245.691 589.293L248.103 589.727C247.909 590.437 247.563 591.06 247.063 591.594C246.569 592.122 245.946 592.534 245.196 592.83C244.452 593.119 243.603 593.264 242.648 593.264ZM264.824 587.571V579.909H267.381V593H264.875V590.733H264.739C264.438 591.432 263.955 592.014 263.29 592.48C262.631 592.94 261.81 593.17 260.827 593.17C259.986 593.17 259.242 592.986 258.594 592.616C257.952 592.241 257.446 591.688 257.077 590.955C256.713 590.222 256.532 589.315 256.532 588.236V579.909H259.08V587.929C259.08 588.821 259.327 589.531 259.821 590.06C260.316 590.588 260.958 590.852 261.747 590.852C262.225 590.852 262.699 590.733 263.171 590.494C263.648 590.256 264.043 589.895 264.355 589.412C264.674 588.929 264.83 588.315 264.824 587.571ZM280.159 583.105L277.849 583.514C277.752 583.219 277.599 582.937 277.389 582.67C277.184 582.403 276.906 582.185 276.553 582.014C276.201 581.844 275.761 581.759 275.232 581.759C274.511 581.759 273.909 581.92 273.426 582.244C272.943 582.562 272.701 582.974 272.701 583.48C272.701 583.918 272.863 584.27 273.187 584.537C273.511 584.804 274.034 585.023 274.755 585.193L276.835 585.67C278.039 585.949 278.937 586.378 279.528 586.957C280.119 587.537 280.414 588.29 280.414 589.216C280.414 590 280.187 590.699 279.732 591.312C279.284 591.92 278.656 592.398 277.849 592.744C277.048 593.091 276.119 593.264 275.062 593.264C273.596 593.264 272.4 592.952 271.474 592.327C270.548 591.696 269.98 590.801 269.769 589.642L272.232 589.267C272.386 589.909 272.701 590.395 273.178 590.724C273.656 591.048 274.278 591.21 275.045 591.21C275.88 591.21 276.548 591.037 277.048 590.69C277.548 590.338 277.798 589.909 277.798 589.403C277.798 588.994 277.644 588.651 277.338 588.372C277.036 588.094 276.573 587.884 275.948 587.741L273.732 587.256C272.511 586.977 271.607 586.534 271.022 585.926C270.443 585.318 270.153 584.548 270.153 583.616C270.153 582.844 270.369 582.168 270.801 581.588C271.232 581.009 271.829 580.557 272.59 580.233C273.352 579.903 274.224 579.739 275.207 579.739C276.622 579.739 277.735 580.045 278.548 580.659C279.36 581.267 279.897 582.082 280.159 583.105ZM288.402 593.264C287.112 593.264 286.002 592.989 285.07 592.438C284.144 591.881 283.428 591.099 282.922 590.094C282.422 589.082 282.172 587.898 282.172 586.54C282.172 585.199 282.422 584.017 282.922 582.994C283.428 581.972 284.132 581.173 285.036 580.599C285.945 580.026 287.007 579.739 288.223 579.739C288.962 579.739 289.678 579.861 290.371 580.105C291.064 580.349 291.686 580.733 292.237 581.256C292.789 581.778 293.223 582.457 293.541 583.293C293.86 584.122 294.019 585.131 294.019 586.318V587.222H283.612V585.312H291.522C291.522 584.642 291.385 584.048 291.112 583.531C290.84 583.009 290.456 582.597 289.962 582.295C289.473 581.994 288.899 581.844 288.24 581.844C287.524 581.844 286.899 582.02 286.365 582.372C285.837 582.719 285.428 583.173 285.138 583.736C284.854 584.293 284.712 584.898 284.712 585.551V587.043C284.712 587.918 284.865 588.662 285.172 589.276C285.485 589.889 285.919 590.358 286.476 590.682C287.033 591 287.683 591.159 288.428 591.159C288.911 591.159 289.351 591.091 289.749 590.955C290.147 590.812 290.49 590.602 290.78 590.324C291.07 590.045 291.291 589.702 291.445 589.293L293.857 589.727C293.664 590.437 293.317 591.06 292.817 591.594C292.323 592.122 291.7 592.534 290.95 592.83C290.206 593.119 289.357 593.264 288.402 593.264ZM296.39 593V579.909H298.853V581.989H298.99C299.228 581.284 299.649 580.73 300.251 580.327C300.859 579.918 301.546 579.713 302.313 579.713C302.472 579.713 302.66 579.719 302.876 579.73C303.097 579.741 303.271 579.756 303.396 579.773V582.21C303.293 582.182 303.112 582.151 302.85 582.116C302.589 582.077 302.328 582.057 302.066 582.057C301.464 582.057 300.927 582.185 300.455 582.44C299.99 582.69 299.62 583.04 299.347 583.489C299.075 583.932 298.938 584.437 298.938 585.006V593H296.39ZM314.955 583.105L312.645 583.514C312.548 583.219 312.395 582.937 312.185 582.67C311.98 582.403 311.702 582.185 311.35 582.014C310.997 581.844 310.557 581.759 310.029 581.759C309.307 581.759 308.705 581.92 308.222 582.244C307.739 582.562 307.497 582.974 307.497 583.48C307.497 583.918 307.659 584.27 307.983 584.537C308.307 584.804 308.83 585.023 309.551 585.193L311.631 585.67C312.835 585.949 313.733 586.378 314.324 586.957C314.915 587.537 315.21 588.29 315.21 589.216C315.21 590 314.983 590.699 314.529 591.312C314.08 591.92 313.452 592.398 312.645 592.744C311.844 593.091 310.915 593.264 309.858 593.264C308.392 593.264 307.196 592.952 306.27 592.327C305.344 591.696 304.776 590.801 304.565 589.642L307.029 589.267C307.182 589.909 307.497 590.395 307.975 590.724C308.452 591.048 309.074 591.21 309.841 591.21C310.676 591.21 311.344 591.037 311.844 590.69C312.344 590.338 312.594 589.909 312.594 589.403C312.594 588.994 312.44 588.651 312.134 588.372C311.833 588.094 311.369 587.884 310.744 587.741L308.529 587.256C307.307 586.977 306.404 586.534 305.818 585.926C305.239 585.318 304.949 584.548 304.949 583.616C304.949 582.844 305.165 582.168 305.597 581.588C306.029 581.009 306.625 580.557 307.386 580.233C308.148 579.903 309.02 579.739 310.003 579.739C311.418 579.739 312.531 580.045 313.344 580.659C314.156 581.267 314.693 582.082 314.955 583.105ZM329.563 579.909V581.955H322.412V579.909H329.563ZM324.33 576.773H326.878V589.156C326.878 589.651 326.952 590.023 327.099 590.273C327.247 590.517 327.438 590.685 327.671 590.776C327.909 590.861 328.168 590.903 328.446 590.903C328.651 590.903 328.83 590.889 328.983 590.861C329.136 590.832 329.256 590.81 329.341 590.793L329.801 592.898C329.653 592.955 329.443 593.011 329.171 593.068C328.898 593.131 328.557 593.165 328.148 593.17C327.477 593.182 326.852 593.062 326.273 592.812C325.693 592.562 325.224 592.176 324.867 591.653C324.509 591.131 324.33 590.474 324.33 589.685V576.773ZM337.299 593.264C336.072 593.264 335.001 592.983 334.086 592.42C333.171 591.858 332.461 591.071 331.955 590.06C331.45 589.048 331.197 587.866 331.197 586.514C331.197 585.156 331.45 583.969 331.955 582.952C332.461 581.935 333.171 581.145 334.086 580.582C335.001 580.02 336.072 579.739 337.299 579.739C338.526 579.739 339.597 580.02 340.512 580.582C341.427 581.145 342.137 581.935 342.643 582.952C343.148 583.969 343.401 585.156 343.401 586.514C343.401 587.866 343.148 589.048 342.643 590.06C342.137 591.071 341.427 591.858 340.512 592.42C339.597 592.983 338.526 593.264 337.299 593.264ZM337.308 591.125C338.103 591.125 338.762 590.915 339.285 590.494C339.808 590.074 340.194 589.514 340.444 588.815C340.7 588.116 340.827 587.347 340.827 586.506C340.827 585.67 340.7 584.903 340.444 584.205C340.194 583.5 339.808 582.935 339.285 582.509C338.762 582.082 338.103 581.869 337.308 581.869C336.506 581.869 335.842 582.082 335.313 582.509C334.791 582.935 334.401 583.5 334.146 584.205C333.896 584.903 333.771 585.67 333.771 586.506C333.771 587.347 333.896 588.116 334.146 588.815C334.401 589.514 334.791 590.074 335.313 590.494C335.842 590.915 336.506 591.125 337.308 591.125ZM355.495 593.29C354.665 593.29 353.915 593.136 353.245 592.83C352.575 592.517 352.043 592.065 351.651 591.474C351.265 590.884 351.072 590.159 351.072 589.301C351.072 588.562 351.214 587.955 351.498 587.477C351.782 587 352.165 586.622 352.648 586.344C353.131 586.065 353.671 585.855 354.268 585.713C354.864 585.571 355.472 585.463 356.092 585.389C356.876 585.298 357.512 585.224 358.001 585.168C358.489 585.105 358.844 585.006 359.066 584.869C359.288 584.733 359.398 584.511 359.398 584.205V584.145C359.398 583.401 359.188 582.824 358.768 582.415C358.353 582.006 357.734 581.801 356.91 581.801C356.052 581.801 355.376 581.991 354.881 582.372C354.393 582.747 354.055 583.165 353.867 583.625L351.472 583.08C351.756 582.284 352.171 581.642 352.717 581.153C353.268 580.659 353.901 580.301 354.617 580.08C355.333 579.852 356.086 579.739 356.876 579.739C357.398 579.739 357.952 579.801 358.538 579.926C359.129 580.045 359.68 580.267 360.191 580.591C360.708 580.915 361.131 581.378 361.461 581.98C361.79 582.577 361.955 583.352 361.955 584.307V593H359.467V591.21H359.364C359.2 591.54 358.952 591.864 358.623 592.182C358.293 592.5 357.87 592.764 357.353 592.974C356.836 593.185 356.217 593.29 355.495 593.29ZM356.049 591.244C356.754 591.244 357.356 591.105 357.856 590.827C358.361 590.548 358.745 590.185 359.006 589.736C359.273 589.281 359.407 588.795 359.407 588.278V586.591C359.316 586.682 359.14 586.767 358.879 586.847C358.623 586.92 358.33 586.986 358.001 587.043C357.671 587.094 357.35 587.142 357.038 587.188C356.725 587.227 356.464 587.261 356.254 587.29C355.759 587.352 355.307 587.457 354.898 587.605C354.495 587.753 354.171 587.966 353.927 588.244C353.688 588.517 353.569 588.881 353.569 589.335C353.569 589.966 353.802 590.443 354.268 590.767C354.734 591.085 355.327 591.244 356.049 591.244ZM375.69 593.256C374.633 593.256 373.69 592.986 372.86 592.446C372.036 591.901 371.388 591.125 370.917 590.119C370.451 589.108 370.218 587.895 370.218 586.48C370.218 585.065 370.454 583.855 370.925 582.849C371.403 581.844 372.056 581.074 372.886 580.54C373.715 580.006 374.655 579.739 375.707 579.739C376.519 579.739 377.172 579.875 377.667 580.148C378.167 580.415 378.553 580.727 378.826 581.085C379.104 581.443 379.32 581.759 379.474 582.031H379.627V575.545H382.175V593H379.687V590.963H379.474C379.32 591.241 379.099 591.56 378.809 591.918C378.525 592.276 378.133 592.588 377.633 592.855C377.133 593.122 376.485 593.256 375.69 593.256ZM376.252 591.082C376.985 591.082 377.604 590.889 378.11 590.503C378.621 590.111 379.008 589.568 379.269 588.875C379.536 588.182 379.67 587.375 379.67 586.455C379.67 585.545 379.539 584.75 379.278 584.068C379.016 583.386 378.633 582.855 378.127 582.474C377.621 582.094 376.996 581.903 376.252 581.903C375.485 581.903 374.846 582.102 374.334 582.5C373.823 582.898 373.437 583.44 373.175 584.128C372.92 584.815 372.792 585.591 372.792 586.455C372.792 587.33 372.922 588.116 373.184 588.815C373.445 589.514 373.832 590.068 374.343 590.477C374.86 590.881 375.496 591.082 376.252 591.082ZM385.356 593V579.909H387.905V593H385.356ZM386.643 577.889C386.2 577.889 385.819 577.741 385.501 577.446C385.189 577.145 385.033 576.787 385.033 576.372C385.033 575.952 385.189 575.594 385.501 575.298C385.819 574.997 386.2 574.847 386.643 574.847C387.086 574.847 387.464 574.997 387.777 575.298C388.095 575.594 388.254 575.952 388.254 576.372C388.254 576.787 388.095 577.145 387.777 577.446C387.464 577.741 387.086 577.889 386.643 577.889ZM397.107 579.909V581.955H389.709V579.909H397.107ZM391.738 593V578.392C391.738 577.574 391.917 576.895 392.275 576.355C392.633 575.81 393.107 575.403 393.698 575.136C394.289 574.864 394.931 574.727 395.624 574.727C396.135 574.727 396.573 574.77 396.937 574.855C397.3 574.935 397.57 575.009 397.746 575.077L397.15 577.139C397.03 577.105 396.877 577.065 396.689 577.02C396.502 576.969 396.275 576.943 396.008 576.943C395.388 576.943 394.945 577.097 394.678 577.403C394.417 577.71 394.286 578.153 394.286 578.733V593H391.738ZM405.51 579.909V581.955H398.113V579.909H405.51ZM400.141 593V578.392C400.141 577.574 400.32 576.895 400.678 576.355C401.036 575.81 401.51 575.403 402.101 575.136C402.692 574.864 403.334 574.727 404.027 574.727C404.539 574.727 404.976 574.77 405.34 574.855C405.704 574.935 405.974 575.009 406.15 575.077L405.553 577.139C405.434 577.105 405.28 577.065 405.093 577.02C404.905 576.969 404.678 576.943 404.411 576.943C403.792 576.943 403.349 577.097 403.081 577.403C402.82 577.71 402.689 578.153 402.689 578.733V593H400.141ZM412.81 593.264C411.52 593.264 410.41 592.989 409.478 592.438C408.552 591.881 407.836 591.099 407.33 590.094C406.83 589.082 406.58 587.898 406.58 586.54C406.58 585.199 406.83 584.017 407.33 582.994C407.836 581.972 408.54 581.173 409.444 580.599C410.353 580.026 411.415 579.739 412.631 579.739C413.37 579.739 414.086 579.861 414.779 580.105C415.472 580.349 416.094 580.733 416.645 581.256C417.196 581.778 417.631 582.457 417.949 583.293C418.268 584.122 418.427 585.131 418.427 586.318V587.222H408.02V585.312H415.929C415.929 584.642 415.793 584.048 415.52 583.531C415.248 583.009 414.864 582.597 414.37 582.295C413.881 581.994 413.307 581.844 412.648 581.844C411.932 581.844 411.307 582.02 410.773 582.372C410.245 582.719 409.836 583.173 409.546 583.736C409.262 584.293 409.12 584.898 409.12 585.551V587.043C409.12 587.918 409.273 588.662 409.58 589.276C409.893 589.889 410.327 590.358 410.884 590.682C411.441 591 412.091 591.159 412.836 591.159C413.319 591.159 413.759 591.091 414.157 590.955C414.554 590.812 414.898 590.602 415.188 590.324C415.478 590.045 415.699 589.702 415.853 589.293L418.265 589.727C418.071 590.437 417.725 591.06 417.225 591.594C416.731 592.122 416.108 592.534 415.358 592.83C414.614 593.119 413.765 593.264 412.81 593.264ZM420.798 593V579.909H423.261V581.989H423.397C423.636 581.284 424.057 580.73 424.659 580.327C425.267 579.918 425.954 579.713 426.721 579.713C426.88 579.713 427.068 579.719 427.284 579.73C427.505 579.741 427.679 579.756 427.804 579.773V582.21C427.701 582.182 427.52 582.151 427.258 582.116C426.997 582.077 426.735 582.057 426.474 582.057C425.872 582.057 425.335 582.185 424.863 582.44C424.397 582.69 424.028 583.04 423.755 583.489C423.483 583.932 423.346 584.437 423.346 585.006V593H420.798ZM434.726 593.264C433.436 593.264 432.326 592.989 431.394 592.438C430.468 591.881 429.752 591.099 429.246 590.094C428.746 589.082 428.496 587.898 428.496 586.54C428.496 585.199 428.746 584.017 429.246 582.994C429.752 581.972 430.456 581.173 431.36 580.599C432.269 580.026 433.331 579.739 434.547 579.739C435.286 579.739 436.002 579.861 436.695 580.105C437.388 580.349 438.01 580.733 438.561 581.256C439.113 581.778 439.547 582.457 439.865 583.293C440.184 584.122 440.343 585.131 440.343 586.318V587.222H429.936V585.312H437.846C437.846 584.642 437.709 584.048 437.436 583.531C437.164 583.009 436.78 582.597 436.286 582.295C435.797 581.994 435.223 581.844 434.564 581.844C433.848 581.844 433.223 582.02 432.689 582.372C432.161 582.719 431.752 583.173 431.462 583.736C431.178 584.293 431.036 584.898 431.036 585.551V587.043C431.036 587.918 431.189 588.662 431.496 589.276C431.809 589.889 432.243 590.358 432.8 590.682C433.357 591 434.007 591.159 434.752 591.159C435.235 591.159 435.675 591.091 436.073 590.955C436.471 590.812 436.814 590.602 437.104 590.324C437.394 590.045 437.615 589.702 437.769 589.293L440.181 589.727C439.988 590.437 439.641 591.06 439.141 591.594C438.647 592.122 438.025 592.534 437.275 592.83C436.53 593.119 435.681 593.264 434.726 593.264ZM445.262 585.227V593H442.714V579.909H445.16V582.04H445.322C445.623 581.347 446.095 580.79 446.737 580.369C447.385 579.949 448.2 579.739 449.183 579.739C450.075 579.739 450.856 579.926 451.527 580.301C452.197 580.67 452.717 581.222 453.086 581.955C453.456 582.687 453.64 583.594 453.64 584.673V593H451.092V584.98C451.092 584.031 450.845 583.29 450.35 582.756C449.856 582.216 449.177 581.946 448.314 581.946C447.723 581.946 447.197 582.074 446.737 582.33C446.282 582.585 445.922 582.96 445.654 583.455C445.393 583.943 445.262 584.534 445.262 585.227ZM462.713 579.909V581.955H455.562V579.909H462.713ZM457.48 576.773H460.028V589.156C460.028 589.651 460.102 590.023 460.25 590.273C460.397 590.517 460.588 590.685 460.821 590.776C461.059 590.861 461.318 590.903 461.596 590.903C461.801 590.903 461.98 590.889 462.133 590.861C462.287 590.832 462.406 590.81 462.491 590.793L462.951 592.898C462.804 592.955 462.593 593.011 462.321 593.068C462.048 593.131 461.707 593.165 461.298 593.17C460.627 593.182 460.002 593.062 459.423 592.812C458.843 592.562 458.375 592.176 458.017 591.653C457.659 591.131 457.48 590.474 457.48 589.685V576.773ZM480.781 583.105L478.471 583.514C478.375 583.219 478.221 582.937 478.011 582.67C477.806 582.403 477.528 582.185 477.176 582.014C476.823 581.844 476.383 581.759 475.855 581.759C475.133 581.759 474.531 581.92 474.048 582.244C473.565 582.562 473.323 582.974 473.323 583.48C473.323 583.918 473.485 584.27 473.809 584.537C474.133 584.804 474.656 585.023 475.377 585.193L477.457 585.67C478.661 585.949 479.559 586.378 480.15 586.957C480.741 587.537 481.036 588.29 481.036 589.216C481.036 590 480.809 590.699 480.355 591.312C479.906 591.92 479.278 592.398 478.471 592.744C477.67 593.091 476.741 593.264 475.684 593.264C474.218 593.264 473.022 592.952 472.096 592.327C471.17 591.696 470.602 590.801 470.392 589.642L472.855 589.267C473.008 589.909 473.323 590.395 473.801 590.724C474.278 591.048 474.9 591.21 475.667 591.21C476.502 591.21 477.17 591.037 477.67 590.69C478.17 590.338 478.42 589.909 478.42 589.403C478.42 588.994 478.267 588.651 477.96 588.372C477.659 588.094 477.196 587.884 476.571 587.741L474.355 587.256C473.133 586.977 472.23 586.534 471.644 585.926C471.065 585.318 470.775 584.548 470.775 583.616C470.775 582.844 470.991 582.168 471.423 581.588C471.855 581.009 472.451 580.557 473.213 580.233C473.974 579.903 474.846 579.739 475.829 579.739C477.244 579.739 478.357 580.045 479.17 580.659C479.982 581.267 480.519 582.082 480.781 583.105ZM484.993 597.909C484.612 597.909 484.266 597.878 483.953 597.815C483.641 597.759 483.408 597.696 483.254 597.628L483.868 595.54C484.334 595.665 484.749 595.719 485.112 595.702C485.476 595.685 485.797 595.548 486.076 595.293C486.36 595.037 486.61 594.619 486.826 594.04L487.141 593.17L482.351 579.909H485.078L488.394 590.068H488.53L491.845 579.909H494.581L489.186 594.747C488.936 595.429 488.618 596.006 488.232 596.477C487.845 596.955 487.385 597.313 486.851 597.551C486.317 597.79 485.698 597.909 484.993 597.909ZM506.33 583.105L504.02 583.514C503.923 583.219 503.77 582.937 503.56 582.67C503.355 582.403 503.077 582.185 502.725 582.014C502.372 581.844 501.932 581.759 501.404 581.759C500.682 581.759 500.08 581.92 499.597 582.244C499.114 582.562 498.872 582.974 498.872 583.48C498.872 583.918 499.034 584.27 499.358 584.537C499.682 584.804 500.205 585.023 500.926 585.193L503.006 585.67C504.21 585.949 505.108 586.378 505.699 586.957C506.29 587.537 506.585 588.29 506.585 589.216C506.585 590 506.358 590.699 505.904 591.312C505.455 591.92 504.827 592.398 504.02 592.744C503.219 593.091 502.29 593.264 501.233 593.264C499.767 593.264 498.571 592.952 497.645 592.327C496.719 591.696 496.151 590.801 495.941 589.642L498.404 589.267C498.557 589.909 498.872 590.395 499.35 590.724C499.827 591.048 500.449 591.21 501.216 591.21C502.051 591.21 502.719 591.037 503.219 590.69C503.719 590.338 503.969 589.909 503.969 589.403C503.969 588.994 503.816 588.651 503.509 588.372C503.208 588.094 502.745 587.884 502.12 587.741L499.904 587.256C498.682 586.977 497.779 586.534 497.193 585.926C496.614 585.318 496.324 584.548 496.324 583.616C496.324 582.844 496.54 582.168 496.972 581.588C497.404 581.009 498 580.557 498.762 580.233C499.523 579.903 500.395 579.739 501.378 579.739C502.793 579.739 503.906 580.045 504.719 580.659C505.531 581.267 506.068 582.082 506.33 583.105ZM515.042 579.909V581.955H507.891V579.909H515.042ZM509.809 576.773H512.357V589.156C512.357 589.651 512.431 590.023 512.579 590.273C512.727 590.517 512.917 590.685 513.15 590.776C513.389 590.861 513.647 590.903 513.926 590.903C514.13 590.903 514.309 590.889 514.463 590.861C514.616 590.832 514.735 590.81 514.82 590.793L515.281 592.898C515.133 592.955 514.923 593.011 514.65 593.068C514.377 593.131 514.036 593.165 513.627 593.17C512.957 593.182 512.332 593.062 511.752 592.812C511.173 592.562 510.704 592.176 510.346 591.653C509.988 591.131 509.809 590.474 509.809 589.685V576.773ZM522.906 593.264C521.617 593.264 520.506 592.989 519.574 592.438C518.648 591.881 517.932 591.099 517.426 590.094C516.926 589.082 516.676 587.898 516.676 586.54C516.676 585.199 516.926 584.017 517.426 582.994C517.932 581.972 518.636 581.173 519.54 580.599C520.449 580.026 521.511 579.739 522.727 579.739C523.466 579.739 524.182 579.861 524.875 580.105C525.568 580.349 526.19 580.733 526.742 581.256C527.293 581.778 527.727 582.457 528.046 583.293C528.364 584.122 528.523 585.131 528.523 586.318V587.222H518.117V585.312H526.026C526.026 584.642 525.889 584.048 525.617 583.531C525.344 583.009 524.96 582.597 524.466 582.295C523.977 581.994 523.404 581.844 522.744 581.844C522.029 581.844 521.404 582.02 520.869 582.372C520.341 582.719 519.932 583.173 519.642 583.736C519.358 584.293 519.216 584.898 519.216 585.551V587.043C519.216 587.918 519.369 588.662 519.676 589.276C519.989 589.889 520.423 590.358 520.98 590.682C521.537 591 522.188 591.159 522.932 591.159C523.415 591.159 523.855 591.091 524.253 590.955C524.651 590.812 524.994 590.602 525.284 590.324C525.574 590.045 525.796 589.702 525.949 589.293L528.361 589.727C528.168 590.437 527.821 591.06 527.321 591.594C526.827 592.122 526.205 592.534 525.455 592.83C524.71 593.119 523.861 593.264 522.906 593.264ZM530.894 593V579.909H533.34V582.04H533.502C533.775 581.318 534.221 580.756 534.84 580.352C535.46 579.943 536.201 579.739 537.065 579.739C537.94 579.739 538.673 579.943 539.264 580.352C539.86 580.761 540.301 581.324 540.585 582.04H540.721C541.033 581.341 541.531 580.784 542.212 580.369C542.894 579.949 543.707 579.739 544.65 579.739C545.837 579.739 546.806 580.111 547.556 580.855C548.312 581.599 548.69 582.722 548.69 584.222V593H546.141V584.46C546.141 583.574 545.9 582.932 545.417 582.534C544.934 582.136 544.357 581.938 543.687 581.938C542.857 581.938 542.212 582.193 541.752 582.705C541.292 583.21 541.062 583.861 541.062 584.656V593H538.522V584.298C538.522 583.588 538.301 583.017 537.857 582.585C537.414 582.153 536.837 581.938 536.127 581.938C535.644 581.938 535.198 582.065 534.789 582.321C534.386 582.571 534.059 582.92 533.809 583.369C533.565 583.818 533.443 584.338 533.443 584.929V593H530.894Z" fill="black" fill-opacity="0.8"/>
<path d="M346 496C346 494.895 345.105 494 344 494C342.895 494 342 494.895 342 496H346ZM342.586 544.914C343.367 545.695 344.633 545.695 345.414 544.914L358.142 532.186C358.923 531.405 358.923 530.139 358.142 529.358C357.361 528.577 356.095 528.577 355.314 529.358L344 540.672L332.686 529.358C331.905 528.577 330.639 528.577 329.858 529.358C329.077 530.139 329.077 531.405 329.858 532.186L342.586 544.914ZM342 496V543.5H346V496H342Z" fill="#757575"/>
<path d="M346 496C346 494.895 345.105 494 344 494C342.895 494 342 494.895 342 496H346ZM495.086 454.586C494.305 455.367 494.305 456.633 495.086 457.414L507.814 470.142C508.595 470.923 509.861 470.923 510.642 470.142C511.423 469.361 511.423 468.095 510.642 467.314L499.328 456L510.642 444.686C511.423 443.905 511.423 442.639 510.642 441.858C509.861 441.077 508.595 441.077 507.814 441.858L495.086 454.586ZM344 496H346H344ZM368 522H496V518H368V522ZM522 496V479.5H518V496H522ZM522 479.5C522 465.417 510.583 454 496.5 454V458C508.374 458 518 467.626 518 479.5H522ZM496 522C510.359 522 522 510.359 522 496H518C518 508.15 508.15 518 496 518V522ZM342 496C342 510.359 353.641 522 368 522V518C355.85 518 346 508.15 346 496H342Z" fill="#757575"/>
<rect x="264" y="680" width="160" height="64" rx="25.6" fill="white" stroke="#757575" stroke-width="4" stroke-linecap="round"/>
<path d="M295.056 721.239C293.988 721.239 293.028 721.034 292.176 720.625C291.329 720.21 290.653 719.642 290.147 718.92C289.642 718.199 289.372 717.375 289.338 716.449H291.894C291.957 717.199 292.289 717.815 292.892 718.298C293.494 718.781 294.215 719.023 295.056 719.023C295.727 719.023 296.32 718.869 296.838 718.562C297.36 718.25 297.769 717.821 298.065 717.276C298.366 716.73 298.517 716.108 298.517 715.409C298.517 714.699 298.363 714.065 298.056 713.509C297.749 712.952 297.326 712.514 296.786 712.196C296.252 711.878 295.639 711.716 294.945 711.71C294.417 711.71 293.886 711.801 293.352 711.983C292.818 712.165 292.386 712.403 292.056 712.699L289.644 712.341L290.624 703.545H300.221V705.804H292.815L292.261 710.688H292.363C292.704 710.358 293.156 710.082 293.718 709.861C294.286 709.639 294.894 709.528 295.542 709.528C296.605 709.528 297.551 709.781 298.38 710.287C299.215 710.793 299.872 711.483 300.349 712.358C300.832 713.227 301.07 714.227 301.065 715.358C301.07 716.489 300.815 717.497 300.298 718.384C299.786 719.27 299.076 719.969 298.167 720.48C297.264 720.986 296.227 721.239 295.056 721.239ZM304.802 721.162C304.336 721.162 303.936 720.997 303.6 720.668C303.265 720.332 303.097 719.929 303.097 719.457C303.097 718.991 303.265 718.594 303.6 718.264C303.936 717.929 304.336 717.761 304.802 717.761C305.268 717.761 305.668 717.929 306.004 718.264C306.339 718.594 306.507 718.991 306.507 719.457C306.507 719.77 306.427 720.057 306.268 720.318C306.114 720.574 305.91 720.778 305.654 720.932C305.399 721.085 305.114 721.162 304.802 721.162ZM314.422 705.812V703.545H327.93V705.812H322.484V721H319.859V705.812H314.422ZM336.766 715.571V707.909H339.323V721H336.818V718.733H336.681C336.38 719.432 335.897 720.014 335.232 720.48C334.573 720.94 333.752 721.17 332.769 721.17C331.928 721.17 331.184 720.986 330.536 720.616C329.894 720.241 329.389 719.688 329.019 718.955C328.656 718.222 328.474 717.315 328.474 716.236V707.909H331.022V715.929C331.022 716.821 331.269 717.531 331.764 718.06C332.258 718.588 332.9 718.852 333.69 718.852C334.167 718.852 334.641 718.733 335.113 718.494C335.59 718.256 335.985 717.895 336.298 717.412C336.616 716.929 336.772 716.315 336.766 715.571ZM342.291 721V707.909H344.754V709.989H344.891C345.129 709.284 345.55 708.73 346.152 708.327C346.76 707.918 347.447 707.713 348.214 707.713C348.374 707.713 348.561 707.719 348.777 707.73C348.999 707.741 349.172 707.756 349.297 707.773V710.21C349.195 710.182 349.013 710.151 348.751 710.116C348.49 710.077 348.229 710.057 347.967 710.057C347.365 710.057 346.828 710.185 346.357 710.44C345.891 710.69 345.521 711.04 345.249 711.489C344.976 711.932 344.839 712.437 344.839 713.006V721H342.291ZM353.594 713.227V721H351.046V707.909H353.492V710.04H353.654C353.955 709.347 354.427 708.79 355.069 708.369C355.717 707.949 356.532 707.739 357.515 707.739C358.407 707.739 359.188 707.926 359.859 708.301C360.529 708.67 361.049 709.222 361.418 709.955C361.788 710.687 361.972 711.594 361.972 712.673V721H359.424V712.98C359.424 712.031 359.177 711.29 358.682 710.756C358.188 710.216 357.509 709.946 356.646 709.946C356.055 709.946 355.529 710.074 355.069 710.33C354.614 710.585 354.254 710.96 353.986 711.455C353.725 711.943 353.594 712.534 353.594 713.227ZM376.344 721.264C375.116 721.264 374.045 720.983 373.131 720.42C372.216 719.858 371.506 719.071 371 718.06C370.494 717.048 370.241 715.866 370.241 714.514C370.241 713.156 370.494 711.969 371 710.952C371.506 709.935 372.216 709.145 373.131 708.582C374.045 708.02 375.116 707.739 376.344 707.739C377.571 707.739 378.642 708.02 379.557 708.582C380.471 709.145 381.182 709.935 381.687 710.952C382.193 711.969 382.446 713.156 382.446 714.514C382.446 715.866 382.193 717.048 381.687 718.06C381.182 719.071 380.471 719.858 379.557 720.42C378.642 720.983 377.571 721.264 376.344 721.264ZM376.352 719.125C377.148 719.125 377.807 718.915 378.329 718.494C378.852 718.074 379.239 717.514 379.489 716.815C379.744 716.116 379.872 715.347 379.872 714.506C379.872 713.67 379.744 712.903 379.489 712.205C379.239 711.5 378.852 710.935 378.329 710.509C377.807 710.082 377.148 709.869 376.352 709.869C375.551 709.869 374.886 710.082 374.358 710.509C373.835 710.935 373.446 711.5 373.19 712.205C372.94 712.903 372.815 713.67 372.815 714.506C372.815 715.347 372.94 716.116 373.19 716.815C373.446 717.514 373.835 718.074 374.358 718.494C374.886 718.915 375.551 719.125 376.352 719.125ZM391.064 707.909V709.955H383.667V707.909H391.064ZM385.695 721V706.392C385.695 705.574 385.874 704.895 386.232 704.355C386.59 703.81 387.064 703.403 387.655 703.136C388.246 702.864 388.888 702.727 389.582 702.727C390.093 702.727 390.53 702.77 390.894 702.855C391.258 702.935 391.528 703.009 391.704 703.077L391.107 705.139C390.988 705.105 390.834 705.065 390.647 705.02C390.459 704.969 390.232 704.943 389.965 704.943C389.346 704.943 388.903 705.097 388.636 705.403C388.374 705.71 388.243 706.153 388.243 706.733V721H385.695ZM399.468 707.909V709.955H392.07V707.909H399.468ZM394.099 721V706.392C394.099 705.574 394.278 704.895 394.635 704.355C394.993 703.81 395.468 703.403 396.059 703.136C396.65 702.864 397.292 702.727 397.985 702.727C398.496 702.727 398.934 702.77 399.297 702.855C399.661 702.935 399.931 703.009 400.107 703.077L399.51 705.139C399.391 705.105 399.238 705.065 399.05 705.02C398.863 704.969 398.635 704.943 398.368 704.943C397.749 704.943 397.306 705.097 397.039 705.403C396.778 705.71 396.647 706.153 396.647 706.733V721H394.099Z" fill="black" fill-opacity="0.8"/>
<path d="M346 624C346 622.895 345.105 622 344 622C342.895 622 342 622.895 342 624H346ZM342.586 672.914C343.367 673.695 344.633 673.695 345.414 672.914L358.142 660.186C358.923 659.405 358.923 658.139 358.142 657.358C357.361 656.577 356.095 656.577 355.314 657.358L344 668.672L332.686 657.358C331.905 656.577 330.639 656.577 329.858 657.358C329.077 658.139 329.077 659.405 329.858 660.186L342.586 672.914ZM342 624V671.5H346V624H342Z" fill="#757575"/>
<path d="M119.062 99.0057C118.911 97.661 118.286 96.6193 117.188 95.8807C116.089 95.1326 114.706 94.7585 113.04 94.7585C111.847 94.7585 110.814 94.9479 109.943 95.3267C109.072 95.696 108.395 96.2074 107.912 96.8608C107.438 97.5047 107.202 98.2386 107.202 99.0625C107.202 99.7538 107.363 100.35 107.685 100.852C108.016 101.354 108.447 101.776 108.977 102.116C109.517 102.448 110.095 102.727 110.71 102.955C111.326 103.172 111.918 103.352 112.486 103.494L115.327 104.233C116.255 104.46 117.206 104.768 118.182 105.156C119.157 105.545 120.062 106.056 120.895 106.69C121.728 107.325 122.401 108.111 122.912 109.048C123.433 109.986 123.693 111.108 123.693 112.415C123.693 114.062 123.267 115.526 122.415 116.804C121.572 118.082 120.346 119.091 118.736 119.83C117.135 120.568 115.199 120.937 112.926 120.937C110.748 120.937 108.864 120.592 107.273 119.901C105.682 119.209 104.437 118.229 103.537 116.96C102.637 115.682 102.14 114.167 102.045 112.415H106.449C106.534 113.466 106.875 114.342 107.472 115.043C108.078 115.734 108.849 116.25 109.787 116.591C110.734 116.922 111.771 117.088 112.898 117.088C114.138 117.088 115.241 116.894 116.207 116.506C117.183 116.108 117.95 115.559 118.509 114.858C119.067 114.148 119.347 113.319 119.347 112.372C119.347 111.51 119.1 110.805 118.608 110.256C118.125 109.706 117.467 109.252 116.634 108.892C115.81 108.532 114.877 108.215 113.835 107.94L110.398 107.003C108.068 106.368 106.222 105.436 104.858 104.205C103.504 102.973 102.827 101.345 102.827 99.3182C102.827 97.642 103.281 96.179 104.19 94.929C105.099 93.679 106.33 92.7083 107.884 92.017C109.437 91.3163 111.188 90.9659 113.139 90.9659C115.109 90.9659 116.847 91.3116 118.352 92.0028C119.867 92.6941 121.061 93.6458 121.932 94.858C122.803 96.0606 123.258 97.4432 123.295 99.0057H119.062ZM136.908 120.895C134.862 120.895 133.077 120.426 131.553 119.489C130.028 118.551 128.844 117.24 128.001 115.554C127.159 113.868 126.737 111.899 126.737 109.645C126.737 107.382 127.159 105.402 128.001 103.707C128.844 102.012 130.028 100.696 131.553 99.7585C133.077 98.821 134.862 98.3523 136.908 98.3523C138.953 98.3523 140.738 98.821 142.263 99.7585C143.787 100.696 144.971 102.012 145.814 103.707C146.657 105.402 147.078 107.382 147.078 109.645C147.078 111.899 146.657 113.868 145.814 115.554C144.971 117.24 143.787 118.551 142.263 119.489C140.738 120.426 138.953 120.895 136.908 120.895ZM136.922 117.33C138.248 117.33 139.346 116.979 140.217 116.278C141.089 115.578 141.732 114.645 142.149 113.48C142.575 112.315 142.788 111.032 142.788 109.631C142.788 108.239 142.575 106.96 142.149 105.795C141.732 104.621 141.089 103.679 140.217 102.969C139.346 102.259 138.248 101.903 136.922 101.903C135.587 101.903 134.479 102.259 133.598 102.969C132.727 103.679 132.078 104.621 131.652 105.795C131.235 106.96 131.027 108.239 131.027 109.631C131.027 111.032 131.235 112.315 131.652 113.48C132.078 114.645 132.727 115.578 133.598 116.278C134.479 116.979 135.587 117.33 136.922 117.33ZM161.322 98.6364V102.045H148.993V98.6364H161.322ZM152.374 120.455V96.108C152.374 94.7443 152.672 93.6127 153.268 92.7131C153.865 91.804 154.656 91.1269 155.641 90.6818C156.625 90.2273 157.695 90 158.851 90C159.703 90 160.432 90.071 161.038 90.2131C161.644 90.3456 162.094 90.4687 162.388 90.5824L161.393 94.0199C161.195 93.9631 160.939 93.8968 160.626 93.821C160.314 93.7358 159.935 93.6932 159.49 93.6932C158.458 93.6932 157.719 93.9489 157.274 94.4602C156.838 94.9716 156.621 95.7102 156.621 96.6761V120.455H152.374ZM175.009 98.6364V102.045H163.092V98.6364H175.009ZM166.288 93.4091H170.535V114.048C170.535 114.872 170.658 115.492 170.904 115.909C171.15 116.316 171.467 116.596 171.856 116.747C172.253 116.889 172.684 116.96 173.148 116.96C173.489 116.96 173.788 116.937 174.043 116.889C174.299 116.842 174.498 116.804 174.64 116.776L175.407 120.284C175.161 120.379 174.81 120.473 174.356 120.568C173.901 120.672 173.333 120.729 172.651 120.739C171.534 120.758 170.492 120.559 169.526 120.142C168.56 119.725 167.779 119.081 167.182 118.21C166.586 117.339 166.288 116.245 166.288 114.929V93.4091ZM183.557 120.455L177.137 98.6364H181.526L185.802 114.659H186.015L190.305 98.6364H194.694L198.955 114.588H199.168L203.415 98.6364H207.805L201.398 120.455H197.066L192.634 104.702H192.307L187.876 120.455H183.557ZM217.305 120.937C215.922 120.937 214.672 120.682 213.555 120.17C212.437 119.65 211.552 118.897 210.898 117.912C210.254 116.927 209.932 115.72 209.932 114.29C209.932 113.059 210.169 112.045 210.643 111.25C211.116 110.455 211.755 109.825 212.56 109.361C213.365 108.897 214.265 108.546 215.259 108.31C216.253 108.073 217.267 107.893 218.299 107.77C219.606 107.618 220.666 107.495 221.481 107.401C222.295 107.296 222.887 107.131 223.256 106.903C223.626 106.676 223.81 106.307 223.81 105.795V105.696C223.81 104.455 223.46 103.494 222.759 102.812C222.068 102.131 221.036 101.79 219.662 101.79C218.233 101.79 217.106 102.107 216.282 102.741C215.467 103.366 214.904 104.062 214.591 104.83L210.6 103.92C211.073 102.595 211.765 101.525 212.674 100.71C213.592 99.8864 214.648 99.2898 215.841 98.9205C217.035 98.5417 218.289 98.3523 219.606 98.3523C220.477 98.3523 221.4 98.4564 222.376 98.6648C223.36 98.8636 224.279 99.233 225.131 99.7727C225.993 100.312 226.698 101.084 227.248 102.088C227.797 103.082 228.072 104.375 228.072 105.966V120.455H223.924V117.472H223.753C223.479 118.021 223.067 118.561 222.518 119.091C221.968 119.621 221.263 120.062 220.401 120.412C219.539 120.762 218.507 120.937 217.305 120.937ZM218.228 117.528C219.402 117.528 220.406 117.296 221.239 116.832C222.082 116.368 222.721 115.762 223.157 115.014C223.602 114.257 223.824 113.447 223.824 112.585V109.773C223.673 109.924 223.379 110.066 222.944 110.199C222.518 110.322 222.03 110.431 221.481 110.526C220.931 110.611 220.396 110.691 219.876 110.767C219.355 110.833 218.919 110.89 218.569 110.937C217.745 111.042 216.992 111.217 216.31 111.463C215.638 111.709 215.098 112.064 214.691 112.528C214.293 112.983 214.094 113.589 214.094 114.347C214.094 115.398 214.483 116.193 215.259 116.733C216.036 117.263 217.025 117.528 218.228 117.528ZM232.849 120.455V98.6364H236.954V102.102H237.181C237.579 100.928 238.279 100.005 239.283 99.3324C240.296 98.6506 241.442 98.3097 242.721 98.3097C242.986 98.3097 243.298 98.3191 243.658 98.3381C244.028 98.357 244.316 98.3807 244.525 98.4091V102.472C244.354 102.424 244.051 102.372 243.616 102.315C243.18 102.249 242.744 102.216 242.309 102.216C241.305 102.216 240.41 102.429 239.624 102.855C238.848 103.272 238.232 103.854 237.778 104.602C237.323 105.341 237.096 106.184 237.096 107.131V120.455H232.849ZM255.942 120.895C253.793 120.895 251.941 120.436 250.388 119.517C248.845 118.589 247.652 117.287 246.809 115.611C245.975 113.925 245.559 111.951 245.559 109.687C245.559 107.453 245.975 105.483 246.809 103.778C247.652 102.074 248.826 100.743 250.331 99.7869C251.847 98.8305 253.617 98.3523 255.644 98.3523C256.875 98.3523 258.068 98.5559 259.224 98.9631C260.379 99.3703 261.416 100.009 262.334 100.881C263.253 101.752 263.977 102.884 264.508 104.276C265.038 105.658 265.303 107.339 265.303 109.318V110.824H247.959V107.642H261.141C261.141 106.525 260.914 105.535 260.459 104.673C260.005 103.802 259.366 103.116 258.542 102.614C257.727 102.112 256.771 101.861 255.672 101.861C254.479 101.861 253.438 102.154 252.547 102.741C251.667 103.319 250.985 104.077 250.502 105.014C250.028 105.942 249.792 106.951 249.792 108.04V110.526C249.792 111.984 250.047 113.224 250.559 114.247C251.08 115.27 251.804 116.051 252.732 116.591C253.66 117.121 254.744 117.386 255.985 117.386C256.79 117.386 257.524 117.273 258.187 117.045C258.849 116.809 259.422 116.458 259.905 115.994C260.388 115.53 260.758 114.957 261.013 114.276L265.033 115C264.711 116.184 264.134 117.221 263.3 118.111C262.476 118.991 261.439 119.678 260.189 120.17C258.949 120.653 257.533 120.895 255.942 120.895ZM295.049 99.0057C294.897 97.661 294.272 96.6193 293.174 95.8807C292.075 95.1326 290.693 94.7585 289.026 94.7585C287.833 94.7585 286.801 94.9479 285.929 95.3267C285.058 95.696 284.381 96.2074 283.898 96.8608C283.425 97.5047 283.188 98.2386 283.188 99.0625C283.188 99.7538 283.349 100.35 283.671 100.852C284.002 101.354 284.433 101.776 284.964 102.116C285.503 102.448 286.081 102.727 286.696 102.955C287.312 103.172 287.904 103.352 288.472 103.494L291.313 104.233C292.241 104.46 293.193 104.768 294.168 105.156C295.143 105.545 296.048 106.056 296.881 106.69C297.714 107.325 298.387 108.111 298.898 109.048C299.419 109.986 299.679 111.108 299.679 112.415C299.679 114.062 299.253 115.526 298.401 116.804C297.558 118.082 296.332 119.091 294.722 119.83C293.122 120.568 291.185 120.937 288.912 120.937C286.734 120.937 284.85 120.592 283.259 119.901C281.668 119.209 280.423 118.229 279.523 116.96C278.624 115.682 278.126 114.167 278.032 112.415H282.435C282.52 113.466 282.861 114.342 283.458 115.043C284.064 115.734 284.836 116.25 285.773 116.591C286.72 116.922 287.757 117.088 288.884 117.088C290.125 117.088 291.228 116.894 292.194 116.506C293.169 116.108 293.936 115.559 294.495 114.858C295.053 114.148 295.333 113.319 295.333 112.372C295.333 111.51 295.087 110.805 294.594 110.256C294.111 109.706 293.453 109.252 292.62 108.892C291.796 108.532 290.863 108.215 289.821 107.94L286.384 107.003C284.054 106.368 282.208 105.436 280.844 104.205C279.49 102.973 278.813 101.345 278.813 99.3182C278.813 97.642 279.268 96.179 280.177 94.929C281.086 93.679 282.317 92.7083 283.87 92.017C285.423 91.3163 287.175 90.9659 289.125 90.9659C291.095 90.9659 292.833 91.3116 294.339 92.0028C295.854 92.6941 297.047 93.6458 297.918 94.858C298.789 96.0606 299.244 97.4432 299.282 99.0057H295.049ZM306.388 128.636C305.754 128.636 305.176 128.584 304.655 128.48C304.134 128.385 303.746 128.281 303.49 128.168L304.513 124.687C305.29 124.896 305.981 124.986 306.587 124.957C307.193 124.929 307.728 124.702 308.192 124.276C308.666 123.849 309.082 123.153 309.442 122.187L309.968 120.739L301.985 98.6364H306.53L312.056 115.568H312.283L317.809 98.6364H322.368L313.377 123.366C312.96 124.503 312.43 125.464 311.786 126.25C311.142 127.045 310.375 127.642 309.485 128.04C308.595 128.437 307.562 128.636 306.388 128.636ZM341.829 103.963L337.98 104.645C337.819 104.152 337.563 103.684 337.213 103.239C336.872 102.794 336.408 102.429 335.821 102.145C335.234 101.861 334.5 101.719 333.619 101.719C332.416 101.719 331.413 101.989 330.608 102.528C329.803 103.059 329.4 103.745 329.4 104.588C329.4 105.317 329.67 105.904 330.21 106.349C330.75 106.795 331.621 107.159 332.824 107.443L336.289 108.239C338.297 108.703 339.793 109.418 340.778 110.384C341.763 111.349 342.255 112.604 342.255 114.148C342.255 115.455 341.877 116.619 341.119 117.642C340.371 118.655 339.325 119.451 337.98 120.028C336.645 120.606 335.096 120.895 333.335 120.895C330.892 120.895 328.898 120.374 327.355 119.332C325.811 118.281 324.864 116.79 324.514 114.858L328.619 114.233C328.875 115.303 329.4 116.113 330.196 116.662C330.991 117.202 332.028 117.472 333.307 117.472C334.699 117.472 335.811 117.183 336.645 116.605C337.478 116.018 337.895 115.303 337.895 114.46C337.895 113.778 337.639 113.205 337.128 112.741C336.626 112.277 335.854 111.927 334.812 111.69L331.119 110.881C329.083 110.417 327.577 109.678 326.602 108.665C325.636 107.652 325.153 106.368 325.153 104.815C325.153 103.527 325.513 102.401 326.233 101.435C326.952 100.469 327.947 99.7159 329.216 99.1761C330.485 98.6269 331.938 98.3523 333.576 98.3523C335.934 98.3523 337.79 98.8636 339.145 99.8864C340.499 100.9 341.394 102.259 341.829 103.963ZM356.23 98.6364V102.045H344.312V98.6364H356.23ZM347.508 93.4091H351.755V114.048C351.755 114.872 351.878 115.492 352.125 115.909C352.371 116.316 352.688 116.596 353.076 116.747C353.474 116.889 353.905 116.96 354.369 116.96C354.71 116.96 355.008 116.937 355.264 116.889C355.52 116.842 355.718 116.804 355.86 116.776L356.628 120.284C356.381 120.379 356.031 120.473 355.576 120.568C355.122 120.672 354.554 120.729 353.872 120.739C352.754 120.758 351.713 120.559 350.747 120.142C349.781 119.725 349 119.081 348.403 118.21C347.806 117.339 347.508 116.245 347.508 114.929V93.4091ZM369.217 120.895C367.067 120.895 365.216 120.436 363.663 119.517C362.119 118.589 360.926 117.287 360.083 115.611C359.25 113.925 358.833 111.951 358.833 109.687C358.833 107.453 359.25 105.483 360.083 103.778C360.926 102.074 362.1 100.743 363.606 99.7869C365.121 98.8305 366.892 98.3523 368.919 98.3523C370.15 98.3523 371.343 98.5559 372.498 98.9631C373.654 99.3703 374.69 100.009 375.609 100.881C376.528 101.752 377.252 102.884 377.782 104.276C378.313 105.658 378.578 107.339 378.578 109.318V110.824H361.234V107.642H374.416C374.416 106.525 374.189 105.535 373.734 104.673C373.279 103.802 372.64 103.116 371.816 102.614C371.002 102.112 370.046 101.861 368.947 101.861C367.754 101.861 366.712 102.154 365.822 102.741C364.941 103.319 364.26 104.077 363.777 105.014C363.303 105.942 363.066 106.951 363.066 108.04V110.526C363.066 111.984 363.322 113.224 363.833 114.247C364.354 115.27 365.079 116.051 366.007 116.591C366.935 117.121 368.019 117.386 369.26 117.386C370.064 117.386 370.798 117.273 371.461 117.045C372.124 116.809 372.697 116.458 373.18 115.994C373.663 115.53 374.032 114.957 374.288 114.276L378.308 115C377.986 116.184 377.408 117.221 376.575 118.111C375.751 118.991 374.714 119.678 373.464 120.17C372.224 120.653 370.808 120.895 369.217 120.895ZM382.41 120.455V98.6364H386.487V102.187H386.757C387.211 100.985 387.955 100.047 388.987 99.375C390.019 98.6932 391.255 98.3523 392.694 98.3523C394.153 98.3523 395.374 98.6932 396.359 99.375C397.353 100.057 398.087 100.994 398.561 102.187H398.788C399.309 101.023 400.137 100.095 401.274 99.4034C402.41 98.7026 403.764 98.3523 405.336 98.3523C407.315 98.3523 408.93 98.9725 410.18 100.213C411.439 101.454 412.069 103.324 412.069 105.824V120.455H407.822V106.222C407.822 104.744 407.42 103.674 406.615 103.011C405.81 102.348 404.849 102.017 403.731 102.017C402.349 102.017 401.274 102.443 400.507 103.295C399.74 104.138 399.356 105.223 399.356 106.548V120.455H395.123V105.952C395.123 104.768 394.754 103.816 394.015 103.097C393.277 102.377 392.315 102.017 391.132 102.017C390.327 102.017 389.583 102.23 388.902 102.656C388.229 103.073 387.685 103.655 387.268 104.403C386.861 105.152 386.657 106.018 386.657 107.003V120.455H382.41ZM426.929 120.455V91.3636H431.318V116.676H444.5V120.455H426.929ZM448.286 120.455V98.6364H452.533V120.455H448.286ZM450.431 95.2699C449.692 95.2699 449.058 95.0237 448.527 94.5312C448.006 94.0294 447.746 93.4328 447.746 92.7415C447.746 92.0407 448.006 91.4441 448.527 90.9517C449.058 90.4498 449.692 90.1989 450.431 90.1989C451.169 90.1989 451.799 90.4498 452.32 90.9517C452.85 91.4441 453.115 92.0407 453.115 92.7415C453.115 93.4328 452.85 94.0294 452.32 94.5312C451.799 95.0237 451.169 95.2699 450.431 95.2699ZM467.75 98.6364V102.045H455.421V98.6364H467.75ZM458.801 120.455V96.108C458.801 94.7443 459.1 93.6127 459.696 92.7131C460.293 91.804 461.084 91.1269 462.068 90.6818C463.053 90.2273 464.123 90 465.279 90C466.131 90 466.86 90.071 467.466 90.2131C468.072 90.3456 468.522 90.4687 468.816 90.5824L467.821 94.0199C467.622 93.9631 467.367 93.8968 467.054 93.821C466.742 93.7358 466.363 93.6932 465.918 93.6932C464.886 93.6932 464.147 93.9489 463.702 94.4602C463.266 94.9716 463.048 95.7102 463.048 96.6761V120.455H458.801ZM479.796 120.895C477.647 120.895 475.795 120.436 474.242 119.517C472.699 118.589 471.506 117.287 470.663 115.611C469.829 113.925 469.413 111.951 469.413 109.687C469.413 107.453 469.829 105.483 470.663 103.778C471.506 102.074 472.68 100.743 474.186 99.7869C475.701 98.8305 477.472 98.3523 479.498 98.3523C480.729 98.3523 481.922 98.5559 483.078 98.9631C484.233 99.3703 485.27 100.009 486.188 100.881C487.107 101.752 487.831 102.884 488.362 104.276C488.892 105.658 489.157 107.339 489.157 109.318V110.824H471.813V107.642H484.995C484.995 106.525 484.768 105.535 484.313 104.673C483.859 103.802 483.22 103.116 482.396 102.614C481.581 102.112 480.625 101.861 479.526 101.861C478.333 101.861 477.292 102.154 476.401 102.741C475.521 103.319 474.839 104.077 474.356 105.014C473.883 105.942 473.646 106.951 473.646 108.04V110.526C473.646 111.984 473.901 113.224 474.413 114.247C474.934 115.27 475.658 116.051 476.586 116.591C477.514 117.121 478.598 117.386 479.839 117.386C480.644 117.386 481.378 117.273 482.041 117.045C482.704 116.809 483.276 116.458 483.759 115.994C484.242 115.53 484.612 114.957 484.867 114.276L488.887 115C488.565 116.184 487.988 117.221 487.154 118.111C486.33 118.991 485.293 119.678 484.043 120.17C482.803 120.653 481.387 120.895 479.796 120.895ZM502.18 120.895C500.068 120.895 498.25 120.417 496.725 119.46C495.21 118.494 494.045 117.164 493.231 115.469C492.417 113.774 492.009 111.832 492.009 109.645C492.009 107.429 492.426 105.473 493.259 103.778C494.093 102.074 495.267 100.743 496.782 99.7869C498.297 98.8305 500.082 98.3523 502.137 98.3523C503.794 98.3523 505.272 98.66 506.569 99.2756C507.866 99.8816 508.913 100.734 509.708 101.832C510.513 102.931 510.991 104.214 511.143 105.682H507.009C506.782 104.659 506.261 103.778 505.447 103.04C504.642 102.301 503.562 101.932 502.208 101.932C501.025 101.932 499.988 102.244 499.097 102.869C498.217 103.485 497.53 104.366 497.038 105.511C496.545 106.648 496.299 107.992 496.299 109.545C496.299 111.136 496.541 112.509 497.024 113.665C497.507 114.82 498.188 115.715 499.069 116.349C499.959 116.984 501.006 117.301 502.208 117.301C503.013 117.301 503.742 117.154 504.396 116.861C505.059 116.558 505.613 116.127 506.058 115.568C506.512 115.009 506.829 114.337 507.009 113.551H511.143C510.991 114.962 510.532 116.222 509.765 117.33C508.998 118.437 507.971 119.309 506.683 119.943C505.404 120.578 503.903 120.895 502.18 120.895ZM517.489 128.636C516.855 128.636 516.277 128.584 515.756 128.48C515.236 128.385 514.847 128.281 514.592 128.168L515.614 124.687C516.391 124.896 517.082 124.986 517.688 124.957C518.294 124.929 518.829 124.702 519.293 124.276C519.767 123.849 520.184 123.153 520.543 122.187L521.069 120.739L513.086 98.6364H517.631L523.157 115.568H523.384L528.91 98.6364H533.47L524.478 123.366C524.061 124.503 523.531 125.464 522.887 126.25C522.243 127.045 521.476 127.642 520.586 128.04C519.696 128.437 518.664 128.636 517.489 128.636ZM545.029 120.895C542.917 120.895 541.099 120.417 539.575 119.46C538.06 118.494 536.895 117.164 536.08 115.469C535.266 113.774 534.859 111.832 534.859 109.645C534.859 107.429 535.275 105.473 536.109 103.778C536.942 102.074 538.116 100.743 539.631 99.7869C541.147 98.8305 542.932 98.3523 544.987 98.3523C546.644 98.3523 548.121 98.66 549.418 99.2756C550.716 99.8816 551.762 100.734 552.558 101.832C553.363 102.931 553.841 104.214 553.992 105.682H549.859C549.631 104.659 549.111 103.778 548.296 103.04C547.491 102.301 546.412 101.932 545.058 101.932C543.874 101.932 542.837 102.244 541.947 102.869C541.066 103.485 540.38 104.366 539.887 105.511C539.395 106.648 539.149 107.992 539.149 109.545C539.149 111.136 539.39 112.509 539.873 113.665C540.356 114.82 541.038 115.715 541.918 116.349C542.809 116.984 543.855 117.301 545.058 117.301C545.863 117.301 546.592 117.154 547.245 116.861C547.908 116.558 548.462 116.127 548.907 115.568C549.362 115.009 549.679 114.337 549.859 113.551H553.992C553.841 114.962 553.381 116.222 552.614 117.33C551.847 118.437 550.82 119.309 549.532 119.943C548.254 120.578 546.753 120.895 545.029 120.895ZM561.901 91.3636V120.455H557.654V91.3636H561.901ZM576.139 120.895C573.989 120.895 572.138 120.436 570.585 119.517C569.041 118.589 567.848 117.287 567.005 115.611C566.172 113.925 565.755 111.951 565.755 109.687C565.755 107.453 566.172 105.483 567.005 103.778C567.848 102.074 569.022 100.743 570.528 99.7869C572.043 98.8305 573.814 98.3523 575.84 98.3523C577.071 98.3523 578.264 98.5559 579.42 98.9631C580.575 99.3703 581.612 100.009 582.531 100.881C583.449 101.752 584.174 102.884 584.704 104.276C585.234 105.658 585.499 107.339 585.499 109.318V110.824H568.156V107.642H581.337C581.337 106.525 581.11 105.535 580.656 104.673C580.201 103.802 579.562 103.116 578.738 102.614C577.924 102.112 576.967 101.861 575.869 101.861C574.675 101.861 573.634 102.154 572.744 102.741C571.863 103.319 571.181 104.077 570.698 105.014C570.225 105.942 569.988 106.951 569.988 108.04V110.526C569.988 111.984 570.244 113.224 570.755 114.247C571.276 115.27 572 116.051 572.928 116.591C573.856 117.121 574.941 117.386 576.181 117.386C576.986 117.386 577.72 117.273 578.383 117.045C579.046 116.809 579.619 116.458 580.102 115.994C580.585 115.53 580.954 114.957 581.21 114.276L585.229 115C584.907 116.184 584.33 117.221 583.496 118.111C582.673 118.991 581.636 119.678 580.386 120.17C579.145 120.653 577.729 120.895 576.139 120.895Z" fill="#1E1E1E"/>
</svg>
